<svg xmlns="http://www.w3.org/2000/svg" viewBox="0 0 128 128"><path fill="#00ADD8" d="M34.216 87.064c-.536 0-1.072-.267-1.34-1.072l-6.430-14.366c-.268-.803-.268-1.607 0-2.41l6.430-14.366c.268-.805.804-1.072 1.34-1.072h12.93c.536 0 1.072.267 1.34 1.072l6.43 14.366c.268.803.268 1.607 0 2.41l-6.43 14.366c-.268.805-.804 1.072-1.34 1.072h-12.93z"/><path fill="#00ADD8" d="M74.32 65.77c-.268.535-.804.802-1.34.802h-12.93c-.604 0-1.14-.267-1.408-.937l-6.226-14.23c-.268-.803-.268-1.607 0-2.276l6.226-14.23c.268-.67.804-.937 1.408-.937h12.93c.536 0 1.072.267 1.34.937l6.226 14.23c.268.669.268 1.473 0 2.276l-6.226 14.365z" opacity=".5"/><path fill="#00ADD8" d="M114.424 44.476c-.268.535-.804.802-1.34.802H99.22c-.604 0-1.14-.267-1.408-.937l-6.226-14.23c-.268-.803-.268-1.607 0-2.276l6.226-14.23c.268-.67.804-.937 1.408-.937h13.865c.536 0 1.072.267 1.34.937l6.226 14.365c.268.67.268 1.474 0 2.277l-6.227 14.229z" opacity=".25"/></svg>