<svg xmlns="http://www.w3.org/2000/svg" viewBox="0 0 128 128"><path fill="#336791" d="M104.37 89.34c-5.65 2.29-8.87 6.61-5.11 9.9 4.74 4.17 15.75-1.17 20.49-5.95.46-.47.52-2.12.12-3.05-5.07-11.26-7.12-21.75-6.44-33.5.34-5.78.11-11.98-.87-17.9-1.51-8.84-6.61-17.91-13.69-23.78C89.8 2.77 79.95.86 73.28.86a60.04 60.04 0 00-52.13 30.47C14.68 39.67 4.77 68.65 9.66 93.88c1.64 7.77 5.56 14.62 11.94 18.2 9.55 5.33 20.46 3.82 22.58-4.02 1.3-4.74.72-10.08-.92-21.16-.51-3.53-.86-7.32 1.72-9.46 2.69-2.25 7.49-2.3 12.79-.35 7.21 2.79 14.32 8.99 18.46 16.54 2.2 4.04 2.97 8.49 1.98 16.68-.34 2.85.61 3.16 1.9 2.26 3.66-2.52 9.2-10.34 10.78-22.62.77-5.98.17-10.61-2.2-14.26-5.59-8.71-15.74-15.34-25.88-16.96-6.69-1.1-16.45.07-19.1 5.92-.13.27-.48 1.07-.51 1.5 0 .51.51 1.67.72 2.55.66 3.03 1.88 6.82 5.52 6.81 2.82-.01 5.46-2.19 6.04-5.03.47-2.43-.76-3.44-2.35-3.52-1.04-.05-1.82.56-2.41 1.4" /><path fill="#336791" d="M39.15 61.48c-1.4-2.91-3.94-2.68-6.23-1.68-2.95 1.3-5.37 4.54-7.23 8.56-1.8 3.92-2.35 8.42-1.64 12.59.51 2.95 1.62 5.23 3.1 6.93.52.61 3.41 2.95 4.61 2.27.71-.39.81-1.74.73-2.66-.15-1.82-.53-3.66-1.12-5.41-.83-2.41-1.6-4.97-1.46-7.49.13-2.44 1.27-4.88 3.44-5.95 1.3-.65 3.43-1.09 4.45 0 .72.77.88 3.68.25 5.24-.95 2.39-2.89 3.78-5.24 3.76a4.42 4.42 0 01-2.31-.67c-.41-.23-1.04-.51-1.24.01-.27.73.26 1.27 1.15 1.74 1.35.72 3.84 1.19 5.58.38 2.44-1.16 4.43-4.05 5.21-6.81 1.13-4.04.74-9.11-1.75-12.46z" /><circle cx="50.84" cy="36.56" r="3.19" fill="#336791" /></svg>