<svg xmlns="http://www.w3.org/2000/svg" viewBox="0 0 128 128"><linearGradient id="python-grad" x1="0" y1="0" x2="0" y2="1"><stop offset="0" stop-color="#3776ab"/><stop offset="1" stop-color="#ffd43b"/></linearGradient><path fill="url(#python-grad)" d="M64 15c-27 0-49 22-49 49s22 49 49 49 49-22 49-49-22-49-49-49zm0 8c22.6 0 41 18.4 41 41s-18.4 41-41 41S23 86.6 23 64 41.4 23 64 23z"/><path fill="#3776ab" d="M43 32c-2 0-3 1-3 3v6h-6c-2 0-3 1-3 3v2c0 2 1 3 3 3h6v6c0 2 1 3 3 3h2c2 0 3-1 3-3v-6h6c2 0 3-1 3-3v-2c0-2-1-3-3-3h-6v-6c0-2-1-3-3-3h-2z"/><path fill="#ffd43b" d="M85 32c-2 0-3 1-3 3v6h-6c-2 0-3 1-3 3v2c0 2 1 3 3 3h6v6c0 2 1 3 3 3h2c2 0 3-1 3-3v-6h6c2 0 3-1 3-3v-2c0-2-1-3-3-3h-6v-6c0-2-1-3-3-3h-2z"/><circle cx="40" cy="70" r="4" fill="#3776ab"/><circle cx="88" cy="70" r="4" fill="#ffd43b"/></svg>