<svg version="1.2" xmlns="http://www.w3.org/2000/svg" viewBox="0 0 800 450" width="800" height="450"><defs><linearGradient id="P" gradientUnits="userSpaceOnUse"/><linearGradient id="g1" x2="1" href="#P" gradientTransform="matrix(800,450,-800,450,0,0)"><stop stop-color="#0f172a"/><stop offset="1" stop-color="#1a2332"/></linearGradient><linearGradient id="g2" x2="1" href="#P" gradientTransform="matrix(0,-40,25,0,130,340)"><stop stop-color="#3b82f6"/><stop offset="1" stop-color="#60a5fa"/></linearGradient><linearGradient id="g3" x2="1" href="#P" gradientTransform="matrix(0,-50,25,0,165,340)"><stop stop-color="#3b82f6"/><stop offset="1" stop-color="#60a5fa"/></linearGradient><linearGradient id="g4" x2="1" href="#P" gradientTransform="matrix(0,-60,25,0,200,340)"><stop stop-color="#3b82f6"/><stop offset="1" stop-color="#60a5fa"/></linearGradient><linearGradient id="g5" x2="1" href="#P" gradientTransform="matrix(0,-60,25,0,533,365)"><stop stop-color="#3b82f6"/><stop offset="1" stop-color="#60a5fa"/></linearGradient><linearGradient id="g6" x2="1" href="#P" gradientTransform="matrix(0,-90,37.5,0,561.75,365)"><stop stop-color="#3b82f6"/><stop offset="1" stop-color="#60a5fa"/></linearGradient><linearGradient id="g7" x2="1" href="#P" gradientTransform="matrix(0,-90,37.5,0,561.75,365)"><stop stop-color="#3b82f6"/><stop offset="1" stop-color="#60a5fa"/></linearGradient><linearGradient id="g8" x2="1" href="#P" gradientTransform="matrix(0,-106,44.167,0,603.417,365)"><stop stop-color="#3b82f6"/><stop offset="1" stop-color="#60a5fa"/></linearGradient><linearGradient id="g9" x2="1" href="#P" gradientTransform="matrix(0,-106,44.167,0,603.417,365)"><stop stop-color="#3b82f6"/><stop offset="1" stop-color="#60a5fa"/></linearGradient><linearGradient id="g10" x2="1" href="#P" gradientTransform="matrix(0,-106,44.167,0,603.417,365)"><stop stop-color="#3b82f6"/><stop offset="1" stop-color="#60a5fa"/></linearGradient><linearGradient id="g11" x2="1" href="#P" gradientTransform="matrix(0,-106,44.167,0,603.417,365)"><stop stop-color="#3b82f6"/><stop offset="1" stop-color="#60a5fa"/></linearGradient><linearGradient id="g12" x2="1" href="#P" gradientTransform="matrix(0,-70.716,29.465,0,653.417,365)"><stop stop-color="#3b82f6"/><stop offset="1" stop-color="#60a5fa"/></linearGradient><linearGradient id="g13" x2="1" href="#P" gradientTransform="matrix(0,-55,25,0,235,340)"><stop stop-color="#3b82f6"/><stop offset="1" stop-color="#60a5fa"/></linearGradient></defs><style>.a{fill:#60a5fa}.b{fill:url(#g1)}.c{opacity:.08;fill:#3b82f6}.d{opacity:.06;fill:#3b82f6}.e{fill:#1e293b}.f{opacity:.5;fill:none;stroke:#334155;stroke-width:2}.g{fill:#0f172a}.h{fill:#ef4444}.i{fill:#eab308}.j{fill:#10b981}.k{opacity:.7;fill:url(#g2)}.l{opacity:.85;fill:url(#g3)}.m{fill:url(#g4)}.n{fill:url(#g5)}.o{fill:url(#g6)}.p{fill:url(#g7)}.q{fill:url(#g8)}.r{fill:url(#g9)}.s{fill:url(#g10)}.t{fill:url(#g11)}.u{fill:url(#g12)}.v{opacity:.9;fill:url(#g13)}.w{opacity:.3;stroke:#334155}.x{opacity:.6;fill:#1e40af}.y{fill:#94a3b8}.z{fill:#fff}.A{fill:#3b82f6}</style><path class="a" d="m245.8 225v2.9h-1v-2.9q-1.1 0-2.1-0.2-1-0.3-2-0.7v-1.8q1 0.7 2 1 1 0.3 2.1 0.3v-4.4q-2.2-0.4-3.2-1.2-0.9-0.9-0.9-2.3 0-1.6 1-2.5 1.1-1 3.1-1.1v-2.3h1v2.3q0.9 0 1.7 0.2 0.9 0.1 1.7 0.4v1.7q-0.8-0.4-1.7-0.6-0.8-0.3-1.7-0.3v4.2q2.2 0.3 3.2 1.2 1.1 0.9 1.1 2.4 0 1.6-1.1 2.6-1.2 0.9-3.2 1.1zm-1-7.5v-4q-1.2 0.1-1.7 0.6-0.6 0.5-0.6 1.4 0 0.8 0.5 1.3 0.6 0.5 1.8 0.7zm1 1.9v4.2q1.2-0.2 1.8-0.7 0.7-0.6 0.7-1.4 0-0.9-0.6-1.4-0.6-0.5-1.9-0.7zm13.8 0.5v-7.8l-5 7.8zm-6.6-0.2l6.1-9.3h2.4v9.5h2.1v1.7h-2.1v3.4h-1.9v-3.4h-6.6zm18.4-1.6q-1.4 0-2.2 0.7-0.8 0.8-0.8 2.1 0 1.3 0.8 2.1 0.8 0.7 2.2 0.7 1.4 0 2.2-0.7 0.8-0.8 0.8-2.1 0-1.3-0.8-2.1-0.8-0.7-2.2-0.7zm-2-0.9q-1.3-0.3-2-1.1-0.7-0.9-0.7-2.2 0-1.7 1.3-2.7 1.2-1 3.4-1 2.2 0 3.4 1 1.2 1 1.2 2.7 0 1.3-0.7 2.2-0.7 0.8-1.9 1.1 1.4 0.4 2.2 1.3 0.8 1 0.8 2.4 0 2.1-1.3 3.3-1.3 1.1-3.7 1.1-2.4 0-3.7-1.1-1.3-1.2-1.3-3.3 0-1.4 0.8-2.4 0.8-0.9 2.2-1.3zm-0.7-3.1q0 1.2 0.7 1.8 0.7 0.6 2 0.6 1.2 0 2-0.6 0.7-0.6 0.7-1.8 0-1.1-0.7-1.7-0.8-0.7-2-0.7-1.3 0-2 0.7-0.7 0.6-0.7 1.7zm11.3 10.9v-14.6h2v6.2l6.5-6.2h2.5l-7.2 6.8 7.8 7.8h-2.6l-7-7v7z"/><path class="b" d="m0 0h800v450h-800z"/><path class="c" d="m100 150c-27.7 0-50-22.3-50-50 0-27.7 22.3-50 50-50 27.7 0 50 22.3 50 50 0 27.7-22.3 50-50 50z"/><path class="d" d="m700 410c-33.2 0-60-26.8-60-60 0-33.2 26.8-60 60-60 33.2 0 60 26.8 60 60 0 33.2-26.8 60-60 60z"/><path class="e" d="m116 60h568c8.8 0 16 7.2 16 16v288c0 8.8-7.2 16-16 16h-568c-8.8 0-16-7.2-16-16v-288c0-8.8 7.2-16 16-16z"/><path class="f" d="m116 60h568c8.8 0 16 7.2 16 16v288c0 8.8-7.2 16-16 16h-568c-8.8 0-16-7.2-16-16v-288c0-8.8 7.2-16 16-16z"/><path class="g" d="m116 60h568c8.8 0 16 7.2 16 16v8c0 8.8-7.2 16-16 16h-568c-8.8 0-16-7.2-16-16v-8c0-8.8 7.2-16 16-16z"/><path class="h" d="m120 85c-2.8 0-5-2.2-5-5 0-2.8 2.2-5 5-5 2.8 0 5 2.2 5 5 0 2.8-2.2 5-5 5z"/><path class="i" d="m140 85c-2.8 0-5-2.2-5-5 0-2.8 2.2-5 5-5 2.8 0 5 2.2 5 5 0 2.8-2.2 5-5 5z"/><path class="j" d="m160 85c-2.8 0-5-2.2-5-5 0-2.8 2.2-5 5-5 2.8 0 5 2.2 5 5 0 2.8-2.2 5-5 5z"/><path class="k" d="m134 300h17c2.2 0 4 1.8 4 4v32c0 2.2-1.8 4-4 4h-17c-2.2 0-4-1.8-4-4v-32c0-2.2 1.8-4 4-4z"/><path class="l" d="m169 290h17c2.2 0 4 1.8 4 4v42c0 2.2-1.8 4-4 4h-17c-2.2 0-4-1.8-4-4v-42c0-2.2 1.8-4 4-4z"/><path class="m" d="m204 280h17c2.2 0 4 1.8 4 4v52c0 2.2-1.8 4-4 4h-17c-2.2 0-4-1.8-4-4v-52c0-2.2 1.8-4 4-4z"/><path class="n" d="m537 305h17c2.2 0 4 1.8 4 4v52c0 2.2-1.8 4-4 4h-17c-2.2 0-4-1.8-4-4v-52c0-2.2 1.8-4 4-4z"/><path class="o" d="m567.8 275h25.5c3.3 0 6 2.7 6 6v78c0 3.3-2.7 6-6 6h-25.5c-3.4 0-6-2.7-6-6v-78c0-3.3 2.6-6 6-6z"/><path class="p" d="m567.8 275h25.5c3.3 0 6 2.7 6 6v78c0 3.3-2.7 6-6 6h-25.5c-3.4 0-6-2.7-6-6v-78c0-3.3 2.6-6 6-6z"/><path class="q" d="m610.5 259h30c3.9 0 7.1 3.2 7.1 7.1v91.8c0 3.9-3.2 7.1-7.1 7.1h-30c-3.9 0-7.1-3.2-7.1-7.1v-91.8c0-3.9 3.2-7.1 7.1-7.1z"/><path class="r" d="m610.5 259h30c3.9 0 7.1 3.2 7.1 7.1v91.8c0 3.9-3.2 7.1-7.1 7.1h-30c-3.9 0-7.1-3.2-7.1-7.1v-91.8c0-3.9 3.2-7.1 7.1-7.1z"/><path class="s" d="m610.5 259h30c3.9 0 7.1 3.2 7.1 7.1v91.8c0 3.9-3.2 7.1-7.1 7.1h-30c-3.9 0-7.1-3.2-7.1-7.1v-91.8c0-3.9 3.2-7.1 7.1-7.1z"/><path class="t" d="m610.5 259h30c3.9 0 7.1 3.2 7.1 7.1v91.8c0 3.9-3.2 7.1-7.1 7.1h-30c-3.9 0-7.1-3.2-7.1-7.1v-91.8c0-3.9 3.2-7.1 7.1-7.1z"/><path class="u" d="m658.1 294.3h20.1c2.6 0 4.7 2.1 4.7 4.7v61.3c0 2.6-2.1 4.7-4.7 4.7h-20.1c-2.6 0-4.7-2.1-4.7-4.7v-61.3c0-2.6 2.1-4.7 4.7-4.7z"/><path class="v" d="m239 285h17c2.2 0 4 1.8 4 4v47c0 2.2-1.8 4-4 4h-17c-2.2 0-4-1.8-4-4v-47c0-2.2 1.8-4 4-4z"/><path class="w" d="m120 340h160"/><path class="x" d="m138 180h69c4.4 0 8 3.6 8 8v54c0 4.4-3.6 8-8 8h-69c-4.4 0-8-3.6-8-8v-54c0-4.4 3.6-8 8-8z"/><path class="a" d="m157.8 223.3h6.9v1.7h-9.2v-1.7q1.1-1.1 3-3.1 2-1.9 2.5-2.5 0.9-1.1 1.3-1.8 0.4-0.7 0.4-1.5 0-1.1-0.9-1.9-0.8-0.7-2.1-0.7-0.9 0-1.9 0.3-1.1 0.4-2.2 1v-2q1.2-0.5 2.2-0.7 1-0.2 1.9-0.2 2.2 0 3.6 1.1 1.3 1.1 1.3 3 0 0.9-0.3 1.7-0.3 0.8-1.2 1.9-0.3 0.3-1.6 1.7-1.3 1.3-3.7 3.7zm10.3 1.7v-2.5h2.1v2.5zm12.4-5.1v-7.8l-5 7.8zm-6.5-0.2l6-9.3h2.5v9.5h2.1v1.7h-2.1v3.4h-2v-3.4h-6.5zm12.9 5.3v-14.6h2v6.2l6.6-6.2h2.5l-7.2 6.8 7.7 7.8h-2.6l-7-7v7z"/><path class="y" d="m152.9 239.3v-4.6h1v4.4q0 1.2 0.4 1.7 0.4 0.5 1.4 0.5 0.9 0 1.3-0.5 0.5-0.5 0.5-1.7v-4.4h1v4.6q0 1.4-0.8 2.1-0.7 0.7-2 0.7-1.4 0-2.1-0.7-0.7-0.7-0.7-2.1zm11.5-2.6v0.8q-0.4-0.2-0.8-0.3-0.4 0-0.8 0-0.7 0-1 0.2-0.3 0.2-0.3 0.6 0 0.3 0.2 0.5 0.2 0.1 1 0.3l0.3 0.1q0.9 0.2 1.3 0.6 0.4 0.3 0.4 1 0 0.8-0.6 1.2-0.6 0.4-1.6 0.4-0.5 0-1 0-0.4-0.1-1-0.3v-0.9q0.5 0.2 1 0.4 0.5 0.1 1 0.1 0.6 0 1-0.2 0.3-0.2 0.3-0.6 0-0.4-0.3-0.6-0.2-0.2-1-0.4l-0.3-0.1q-0.9-0.1-1.2-0.5-0.4-0.4-0.4-1 0-0.8 0.5-1.2 0.6-0.4 1.6-0.4 0.5 0 0.9 0.1 0.5 0 0.8 0.2zm1.4 3.1v-3.3h0.9v3.3q0 0.8 0.4 1.2 0.3 0.4 0.9 0.4 0.7 0 1.1-0.5 0.4-0.5 0.4-1.3v-3.1h0.9v5.5h-0.9v-0.8q-0.3 0.5-0.7 0.7-0.5 0.2-1 0.2-1 0-1.5-0.5-0.5-0.6-0.5-1.8zm2.3-3.4zm7.2 2.9h-0.9q-1.1 0-1.5 0.2-0.4 0.2-0.4 0.8 0 0.5 0.3 0.8 0.3 0.3 0.9 0.3 0.7 0 1.2-0.5 0.4-0.6 0.4-1.4zm0.9-0.4v3.1h-0.9v-0.8q-0.3 0.5-0.7 0.7-0.5 0.2-1.2 0.2-0.8 0-1.3-0.4-0.5-0.5-0.5-1.3 0-0.9 0.6-1.4 0.6-0.5 1.9-0.5h1.2q0-0.7-0.4-1-0.4-0.3-1.1-0.3-0.5 0-0.9 0.1-0.5 0.1-0.9 0.3v-0.8q0.5-0.2 1-0.3 0.4-0.1 0.9-0.1 1.1 0 1.7 0.6 0.6 0.6 0.6 1.9zm4.9-2.5v1q-0.1-0.1-0.3-0.2-0.2 0-0.4 0-0.8 0-1.2 0.5-0.4 0.5-0.4 1.4v2.9h-0.9v-5.5h0.9v0.9q0.3-0.5 0.7-0.8 0.5-0.2 1.2-0.2 0 0 0.2 0 0.1 0 0.2 0zm1.8 5.6v-5.5h0.9v5.5zm0-6.5v-1.1h0.9v1.1zm4.2 1.7q-0.8 0-1.2 0.5-0.4 0.6-0.4 1.6 0 1 0.4 1.5 0.4 0.6 1.2 0.6 0.7 0 1.1-0.6 0.4-0.6 0.4-1.5 0-1-0.4-1.6-0.4-0.5-1.1-0.5zm0-0.8q1.1 0 1.8 0.8 0.7 0.7 0.7 2.1 0 1.3-0.7 2.1-0.7 0.7-1.8 0.7-1.2 0-1.9-0.7-0.7-0.8-0.7-2.1 0-1.4 0.7-2.1 0.7-0.8 1.9-0.8zm7.3 0.3v0.8q-0.4-0.2-0.8-0.3-0.4 0-0.8 0-0.7 0-1 0.2-0.4 0.2-0.4 0.6 0 0.3 0.3 0.5 0.2 0.1 0.9 0.3l0.4 0.1q0.9 0.2 1.3 0.6 0.4 0.3 0.4 1 0 0.8-0.6 1.2-0.6 0.4-1.6 0.4-0.5 0-1 0-0.4-0.1-1-0.3v-0.9q0.5 0.2 1 0.4 0.5 0.1 1 0.1 0.6 0 1-0.2 0.3-0.2 0.3-0.6 0-0.4-0.3-0.6-0.2-0.2-1-0.4l-0.3-0.1q-0.9-0.1-1.3-0.5-0.3-0.4-0.3-1 0-0.8 0.5-1.2 0.6-0.4 1.6-0.4 0.5 0 0.9 0.1 0.5 0 0.8 0.2z"/><path class="x" d="m232 181h69c4.4 0 8 3.6 8 8v54c0 4.4-3.6 8-8 8h-69c-4.4 0-8-3.6-8-8v-54c0-4.4 3.6-8 8-8z"/><path class="x" d="m532.3 225h141c9 0 16.3 7.3 16.3 16.3v110.4c0 9-7.3 16.3-16.3 16.3h-141c-9 0-16.3-7.3-16.3-16.3v-110.4c0-9 7.3-16.3 16.3-16.3z"/><path class="x" d="m349.3 225h141c9 0 16.3 7.3 16.3 16.3v110.4c0 9-7.3 16.3-16.3 16.3h-141c-9 0-16.3-7.3-16.3-16.3v-110.4c0-9 7.3-16.3 16.3-16.3z"/><path class="a" d="m245.8 225v2.9h-1v-2.9q-1.1 0-2.1-0.2-1-0.3-2-0.7v-1.8q1 0.7 2 1 1 0.3 2.1 0.3v-4.4q-2.2-0.4-3.2-1.2-0.9-0.9-0.9-2.3 0-1.6 1-2.5 1.1-1 3.1-1.1v-2.3h1v2.3q0.9 0 1.7 0.2 0.9 0.1 1.7 0.4v1.7q-0.8-0.4-1.7-0.6-0.8-0.3-1.7-0.3v4.2q2.2 0.3 3.2 1.2 1.1 0.9 1.1 2.4 0 1.6-1.1 2.6-1.2 0.9-3.2 1.1zm-1-7.5v-4q-1.2 0.1-1.7 0.6-0.6 0.5-0.6 1.4 0 0.8 0.5 1.3 0.6 0.5 1.8 0.7zm1 1.9v4.2q1.2-0.2 1.8-0.7 0.7-0.6 0.7-1.4 0-0.9-0.6-1.4-0.6-0.5-1.9-0.7zm13.8 0.5v-7.8l-5 7.8zm-6.6-0.2l6.1-9.3h2.4v9.5h2.1v1.7h-2.1v3.4h-1.9v-3.4h-6.6zm18.4-1.6q-1.4 0-2.2 0.7-0.8 0.8-0.8 2.1 0 1.3 0.8 2.1 0.8 0.7 2.2 0.7 1.4 0 2.2-0.7 0.8-0.8 0.8-2.1 0-1.3-0.8-2.1-0.8-0.7-2.2-0.7zm-2-0.9q-1.3-0.3-2-1.1-0.7-0.9-0.7-2.2 0-1.7 1.3-2.7 1.2-1 3.4-1 2.2 0 3.4 1 1.2 1 1.2 2.7 0 1.3-0.7 2.2-0.7 0.8-1.9 1.1 1.4 0.4 2.2 1.3 0.8 1 0.8 2.4 0 2.1-1.3 3.3-1.3 1.1-3.7 1.1-2.4 0-3.7-1.1-1.3-1.2-1.3-3.3 0-1.4 0.8-2.4 0.8-0.9 2.2-1.3zm-0.7-3.1q0 1.2 0.7 1.8 0.7 0.6 2 0.6 1.2 0 2-0.6 0.7-0.6 0.7-1.8 0-1.1-0.7-1.7-0.8-0.7-2-0.7-1.3 0-2 0.7-0.7 0.6-0.7 1.7zm11.3 10.9v-14.6h2v6.2l6.5-6.2h2.5l-7.2 6.8 7.8 7.8h-2.6l-7-7v7z"/><path class="a" d="m381.2 310v4h-1.3v-4q-1.4 0-2.8-0.3-1.4-0.3-2.8-0.9v-2.4q1.3 0.8 2.7 1.3 1.4 0.4 2.9 0.4v-6.1q-2.9-0.5-4.3-1.6-1.3-1.2-1.3-3.2 0-2.1 1.4-3.4 1.5-1.2 4.2-1.4v-3.2h1.3v3.1q1.3 0.1 2.4 0.3 1.2 0.2 2.3 0.6v2.3q-1.1-0.6-2.3-0.9-1.1-0.3-2.4-0.3v5.7q3.1 0.4 4.5 1.6 1.4 1.2 1.4 3.3 0 2.3-1.5 3.6-1.5 1.3-4.4 1.5zm-1.3-10.3v-5.4q-1.5 0.1-2.4 0.8-0.8 0.7-0.8 1.9 0 1.2 0.8 1.8 0.7 0.6 2.4 0.9zm1.3 2.6v5.8q1.7-0.3 2.6-1 0.8-0.7 0.8-1.9 0-1.2-0.8-1.9-0.8-0.7-2.6-1zm10.8 7.3v-2.5q1 0.5 2.1 0.8 1 0.2 2 0.2 2.7 0 4.1-1.8 1.4-1.8 1.6-5.4-0.8 1.1-2 1.7-1.2 0.6-2.6 0.6-3 0-4.7-1.8-1.8-1.8-1.8-4.9 0-3.1 1.8-4.9 1.9-1.9 4.9-1.9 3.4 0 5.2 2.7 1.9 2.6 1.9 7.7 0 4.7-2.3 7.5-2.2 2.8-6 2.8-1 0-2-0.2-1.1-0.2-2.2-0.6zm5.4-8.5q1.8 0 2.8-1.2 1.1-1.2 1.1-3.4 0-2.2-1.1-3.4-1-1.2-2.8-1.2-1.8 0-2.9 1.2-1.1 1.2-1.1 3.4 0 2.2 1.1 3.4 1.1 1.2 2.9 1.2zm18.3-9.2q-2.1 0-3.1 2-1.1 2.1-1.1 6.2 0 4.1 1.1 6.1 1 2.1 3.1 2.1 2.1 0 3.1-2.1 1.1-2 1.1-6.1 0-4.1-1.1-6.2-1-2-3.1-2zm0-2.2q3.3 0 5.1 2.7 1.8 2.6 1.8 7.7 0 5-1.8 7.6-1.8 2.7-5.1 2.7-3.4 0-5.1-2.7-1.8-2.6-1.8-7.6 0-5.1 1.8-7.7 1.7-2.7 5.1-2.7zm18.6 13.4v-10.7l-6.8 10.7zm-9-0.4l8.3-12.6h3.4v13h2.8v2.2h-2.8v4.7h-2.7v-4.7h-9zm19.4 7.3v-19.9h2.7v8.4l8.9-8.4h3.5l-9.9 9.3 10.6 10.6h-3.6l-9.5-9.6v9.6z"/><path class="y" d="m246 243v-7.3h1v7.3zm7.5-3.3v3.3h-0.9v-3.3q0-0.7-0.3-1.1-0.3-0.4-0.9-0.4-0.8 0-1.2 0.4-0.4 0.5-0.4 1.3v3.1h-0.9v-5.5h0.9v0.9q0.3-0.5 0.8-0.8 0.4-0.2 1-0.2 0.9 0 1.4 0.6 0.5 0.6 0.5 1.7zm5 0.5q0-1-0.4-1.5-0.4-0.5-1.1-0.5-0.7 0-1.1 0.5-0.4 0.5-0.4 1.5 0 1 0.4 1.5 0.4 0.5 1.1 0.5 0.7 0 1.1-0.5 0.4-0.5 0.4-1.5zm0.9-2.7v4.8q0 1.4-0.6 2.1-0.6 0.7-1.9 0.7-0.5 0-0.9-0.1-0.4-0.1-0.8-0.2v-0.9q0.4 0.2 0.8 0.3 0.4 0.1 0.8 0.1 0.8 0 1.3-0.4 0.4-0.5 0.4-1.4v-0.5q-0.3 0.5-0.7 0.8-0.4 0.2-1 0.2-1 0-1.6-0.8-0.7-0.7-0.7-2 0-1.3 0.7-2 0.6-0.8 1.6-0.8 0.6 0 1 0.2 0.4 0.3 0.7 0.8v-0.9zm5.7-0.1v1q-0.2-0.1-0.3-0.2-0.2 0-0.4 0-0.8 0-1.2 0.5-0.4 0.5-0.4 1.4v2.9h-0.9v-5.5h0.9v0.9q0.3-0.5 0.7-0.8 0.5-0.2 1.1-0.2 0.1 0 0.2 0 0.2 0 0.3 0zm4.5 2.6v0.5h-4.1q0 0.9 0.5 1.4 0.5 0.5 1.4 0.5 0.5 0 1-0.1 0.5-0.2 1-0.4v0.8q-0.5 0.2-1 0.3-0.5 0.1-1 0.1-1.3 0-2.1-0.7-0.8-0.8-0.8-2.1 0-1.3 0.8-2.1 0.7-0.8 1.9-0.8 1.1 0 1.8 0.7 0.6 0.7 0.6 1.9zm-4.1-0.2h3.2q0-0.8-0.4-1.2-0.4-0.4-1.1-0.4-0.7 0-1.2 0.4-0.4 0.4-0.5 1.2zm9.9-2.1v0.8q-0.4-0.2-0.8-0.3-0.4 0-0.8 0-0.7 0-1 0.2-0.4 0.2-0.4 0.6 0 0.3 0.3 0.5 0.2 0.1 0.9 0.3l0.3 0.1q1 0.2 1.4 0.6 0.4 0.3 0.4 1 0 0.8-0.6 1.2-0.6 0.4-1.7 0.4-0.4 0-0.9 0-0.4-0.1-1-0.3v-0.9q0.5 0.2 1 0.4 0.5 0.1 1 0.1 0.6 0 0.9-0.2 0.4-0.2 0.4-0.6 0-0.4-0.3-0.6-0.2-0.2-1-0.4l-0.4-0.1q-0.8-0.1-1.2-0.5-0.3-0.4-0.3-1 0-0.8 0.5-1.2 0.6-0.4 1.6-0.4 0.5 0 0.9 0.1 0.4 0 0.8 0.2zm3.6 0.5q-0.7 0-1.1 0.5-0.4 0.6-0.4 1.6 0 1 0.4 1.5 0.4 0.6 1.1 0.6 0.8 0 1.2-0.6 0.4-0.6 0.4-1.5 0-1-0.4-1.6-0.4-0.5-1.2-0.5zm0-0.8q1.2 0 1.9 0.8 0.7 0.7 0.7 2.1 0 1.3-0.7 2.1-0.7 0.7-1.9 0.7-1.1 0-1.8-0.7-0.7-0.8-0.7-2.1 0-1.4 0.7-2.1 0.7-0.8 1.8-0.8zm7.4 0.3v0.8q-0.4-0.2-0.8-0.3-0.4 0-0.8 0-0.7 0-1 0.2-0.4 0.2-0.4 0.6 0 0.3 0.3 0.5 0.2 0.1 0.9 0.3l0.3 0.1q1 0.2 1.4 0.6 0.4 0.3 0.4 1 0 0.8-0.6 1.2-0.6 0.4-1.7 0.4-0.4 0-0.9 0-0.4-0.1-1-0.3v-0.9q0.5 0.2 1 0.4 0.5 0.1 1 0.1 0.6 0 0.9-0.2 0.4-0.2 0.4-0.6 0-0.4-0.3-0.6-0.2-0.2-1-0.4l-0.4-0.1q-0.8-0.1-1.2-0.5-0.3-0.4-0.3-1 0-0.8 0.5-1.2 0.6-0.4 1.6-0.4 0.5 0 0.9 0.1 0.4 0 0.8 0.2z"/><path class="y" d="m390.5 337.5v-4.8h-3.9v-2h6.3v7.6q-1.4 1-3.1 1.5-1.7 0.5-3.6 0.5-4.1 0-6.5-2.4-2.3-2.4-2.3-6.8 0-4.3 2.3-6.7 2.4-2.5 6.5-2.5 1.8 0 3.3 0.4 1.6 0.5 2.9 1.3v2.6q-1.3-1.2-2.8-1.7-1.5-0.6-3.2-0.6-3.2 0-4.9 1.8-1.6 1.8-1.6 5.4 0 3.6 1.6 5.4 1.7 1.9 4.9 1.9 1.3 0 2.3-0.2 1-0.3 1.8-0.7zm15-4.2h-2.1q-2.7 0-3.7 0.6-1 0.6-1 2.1 0 1.1 0.7 1.8 0.8 0.7 2.1 0.7 1.8 0 2.9-1.3 1.1-1.3 1.1-3.4zm2.2-0.9v7.6h-2.2v-2q-0.7 1.2-1.8 1.8-1.2 0.5-2.8 0.5-2 0-3.2-1.1-1.2-1.2-1.2-3.1 0-2.2 1.5-3.4 1.5-1.1 4.5-1.1h3v-0.2q0-1.5-1-2.4-1-0.8-2.8-0.8-1.1 0-2.2 0.3-1.1 0.2-2.1 0.8v-2q1.2-0.5 2.4-0.7 1.1-0.3 2.2-0.3 2.9 0 4.3 1.5 1.4 1.5 1.4 4.6zm13.1-5.3v2q-0.9-0.5-1.9-0.7-1-0.2-2.1-0.2-1.6 0-2.5 0.5-0.8 0.5-0.8 1.5 0 0.7 0.6 1.2 0.6 0.4 2.4 0.8l0.7 0.2q2.3 0.5 3.3 1.4 1 0.9 1 2.5 0 1.9-1.5 3-1.4 1-4 1-1.1 0-2.2-0.2-1.2-0.2-2.5-0.6v-2.3q1.2 0.7 2.4 1 1.2 0.3 2.3 0.3 1.6 0 2.4-0.5 0.9-0.6 0.9-1.5 0-0.9-0.6-1.4-0.6-0.5-2.7-0.9l-0.7-0.2q-2.1-0.4-3-1.3-0.9-0.9-0.9-2.4 0-1.9 1.3-2.9 1.4-1.1 3.8-1.1 1.2 0 2.3 0.2 1.1 0.2 2 0.6zm4.5-4.2h2.2v3.8h4.5v1.7h-4.5v7.2q0 1.6 0.4 2.1 0.5 0.5 1.8 0.5h2.3v1.8h-2.3q-2.5 0-3.5-1-0.9-0.9-0.9-3.4v-7.2h-1.6v-1.7h1.6zm15.2 5.3q-1.8 0-2.8 1.4-1 1.3-1 3.7 0 2.4 1 3.8 1 1.4 2.8 1.4 1.7 0 2.7-1.4 1.1-1.4 1.1-3.8 0-2.3-1.1-3.7-1-1.4-2.7-1.4zm0-1.9q2.8 0 4.4 1.9 1.7 1.8 1.7 5.1 0 3.3-1.7 5.2-1.6 1.8-4.4 1.8-2.9 0-4.5-1.8-1.7-1.9-1.7-5.2 0-3.3 1.7-5.1 1.6-1.9 4.5-1.9zm17.3 0.7v2.1q-0.9-0.5-1.9-0.7-1-0.2-2.1-0.2-1.6 0-2.5 0.5-0.8 0.5-0.8 1.5 0 0.7 0.6 1.2 0.6 0.4 2.4 0.8l0.7 0.1q2.3 0.5 3.3 1.5 1 0.9 1 2.5 0 1.9-1.5 2.9-1.4 1.1-4 1.1-1.1 0-2.2-0.2-1.2-0.2-2.5-0.6v-2.3q1.2 0.7 2.4 1 1.2 0.3 2.3 0.3 1.6 0 2.4-0.5 0.9-0.6 0.9-1.5 0-0.9-0.6-1.4-0.6-0.5-2.7-0.9l-0.7-0.2q-2.1-0.4-3-1.3-0.9-0.9-0.9-2.4 0-1.9 1.3-3 1.4-1 3.8-1 1.2 0 2.3 0.2 1.1 0.2 2 0.5z"/><path class="z" d="m168.6 122.6h-6.5v11.1h6.5q3.3 0 4.9-1.4 1.6-1.4 1.6-4.2 0-2.8-1.6-4.1-1.6-1.4-4.9-1.4zm-0.5-12.3h-6v9h6q3 0 4.5-1.1 1.4-1.1 1.4-3.4 0-2.3-1.4-3.4-1.5-1.1-4.5-1.1zm-10.1 26.7v-30.1h10.4q4.7 0 7.2 2 2.5 1.9 2.5 5.5 0 2.7-1.3 4.4-1.3 1.6-3.8 2 3 0.6 4.7 2.7 1.7 2 1.7 5.1 0 4-2.8 6.2-2.7 2.2-7.8 2.2zm27.5-8.9v-13.6h3.7v13.5q0 3.2 1.2 4.8 1.3 1.6 3.8 1.6 3 0 4.7-1.9 1.8-2 1.8-5.3v-12.7h3.7v22.5h-3.7v-3.5q-1.4 2.1-3.2 3.1-1.7 1-4.1 1-3.9 0-5.9-2.4-2-2.4-2-7.1zm9.3-14.2zm31.4 1.2v3.5q-1.5-0.8-3.2-1.2-1.7-0.4-3.5-0.4-2.8 0-4.2 0.9-1.3 0.8-1.3 2.5 0 1.3 1 2 0.9 0.8 3.9 1.4l1.3 0.3q3.9 0.8 5.6 2.4 1.7 1.5 1.7 4.3 0 3.1-2.5 5-2.5 1.8-6.9 1.8-1.8 0-3.8-0.4-1.9-0.3-4.1-1v-3.8q2.1 1 4.1 1.6 2 0.5 3.9 0.5 2.6 0 4-0.9 1.4-0.9 1.4-2.5 0-1.5-1-2.4-1-0.8-4.4-1.5l-1.3-0.3q-3.5-0.7-5-2.2-1.5-1.5-1.5-4.1 0-3.2 2.2-5 2.3-1.7 6.4-1.7 2.1 0 3.9 0.3 1.8 0.3 3.3 0.9zm7.7 21.9v-22.5h3.7v22.5zm0-26.6v-4.7h3.7v4.7zm29.7 13v13.6h-3.7v-13.5q0-3.2-1.2-4.8-1.3-1.6-3.8-1.6-3 0-4.7 1.9-1.7 2-1.7 5.3v12.7h-3.8v-22.5h3.8v3.5q1.3-2.1 3.1-3.1 1.8-1 4.1-1 3.9 0 5.9 2.4 2 2.4 2 7.1zm26.6 1.4v1.8h-17.1q0.3 3.8 2.3 5.9 2.1 1.9 5.8 1.9 2.1 0 4.1-0.5 2-0.5 4-1.5v3.5q-2 0.8-4.1 1.2-2.1 0.5-4.2 0.5-5.4 0-8.6-3.2-3.1-3.1-3.1-8.5 0-5.5 2.9-8.7 3-3.3 8.1-3.3 4.6 0 7.2 3 2.7 2.9 2.7 7.9zm-16.9-1.1h13.2q-0.1-3-1.8-4.8-1.6-1.8-4.3-1.8-3.1 0-5 1.7-1.9 1.8-2.1 4.9zm38-8.6v3.5q-1.6-0.8-3.3-1.2-1.7-0.4-3.5-0.4-2.8 0-4.2 0.9-1.3 0.8-1.3 2.5 0 1.3 1 2 0.9 0.8 3.9 1.4l1.3 0.3q3.9 0.8 5.6 2.4 1.7 1.5 1.7 4.3 0 3.1-2.5 5-2.5 1.8-6.9 1.8-1.8 0-3.7-0.4-2-0.3-4.2-1v-3.8q2.1 1 4.1 1.6 2 0.5 3.9 0.5 2.6 0 4-0.9 1.5-0.9 1.5-2.5 0-1.5-1.1-2.4-1-0.8-4.4-1.5l-1.3-0.3q-3.4-0.7-5-2.2-1.5-1.5-1.5-4.1 0-3.2 2.2-5 2.3-1.7 6.4-1.7 2.1 0 3.9 0.3 1.8 0.3 3.4 0.9zm21 0v3.5q-1.6-0.8-3.3-1.2-1.7-0.4-3.5-0.4-2.8 0-4.2 0.9-1.3 0.8-1.3 2.5 0 1.3 1 2 0.9 0.8 3.9 1.4l1.3 0.3q3.9 0.8 5.6 2.4 1.7 1.5 1.7 4.3 0 3.1-2.5 5-2.5 1.8-6.9 1.8-1.8 0-3.7-0.4-2-0.3-4.2-1v-3.8q2.1 1 4.1 1.6 2 0.5 3.9 0.5 2.6 0 4-0.9 1.5-0.9 1.5-2.5 0-1.5-1.1-2.4-1-0.8-4.4-1.5l-1.3-0.3q-3.4-0.7-5-2.2-1.5-1.5-1.5-4.1 0-3.2 2.2-5 2.3-1.7 6.4-1.7 2.1 0 3.9 0.3 1.8 0.3 3.4 0.9zm20.7 21.9v-30.1h6.1l7.7 20.5 7.7-20.5h6v30.1h-3.9v-26.4l-7.8 20.6h-4.1l-7.7-20.6v26.4zm48.8-11.3h-3.7q-4.5 0-6.2 1-1.8 1-1.8 3.5 0 2 1.3 3.1 1.3 1.2 3.6 1.2 3 0 4.9-2.2 1.9-2.2 1.9-5.8zm3.7-1.5v12.8h-3.7v-3.4q-1.3 2.1-3.2 3-1.9 1-4.6 1-3.5 0-5.6-1.9-2-2-2-5.2 0-3.8 2.6-5.8 2.5-1.9 7.6-1.9h5.2v-0.4q0-2.5-1.7-3.9-1.7-1.4-4.7-1.4-2 0-3.8 0.4-1.8 0.5-3.5 1.4v-3.4q2-0.8 3.9-1.2 1.9-0.4 3.7-0.4 4.9 0 7.3 2.6 2.5 2.5 2.5 7.7zm27.1-0.8v13.6h-3.7v-13.5q0-3.2-1.3-4.8-1.2-1.5-3.7-1.5-3 0-4.8 1.9-1.7 1.9-1.7 5.2v12.7h-3.7v-22.5h3.7v3.5q1.3-2 3.1-3.1 1.8-1 4.2-1 3.9 0 5.9 2.5 2 2.3 2 7zm21.2 2.3h-3.7q-4.5 0-6.2 1-1.8 1-1.8 3.5 0 2 1.3 3.2 1.3 1.1 3.6 1.1 3 0 4.9-2.2 1.9-2.2 1.9-5.8zm3.7-1.5v12.9h-3.7v-3.5q-1.3 2.1-3.2 3.1-1.9 0.9-4.6 0.9-3.5 0-5.6-1.9-2-2-2-5.2 0-3.8 2.6-5.7 2.5-2 7.6-2h5.2v-0.3q0-2.6-1.7-4-1.7-1.4-4.7-1.4-2 0-3.8 0.5-1.8 0.4-3.5 1.4v-3.5q2-0.8 3.9-1.1 1.9-0.4 3.7-0.4 4.9 0 7.3 2.5 2.5 2.5 2.5 7.7zm22.2 1.3q0-4-1.7-6.2-1.7-2.2-4.7-2.2-2.9 0-4.6 2.2-1.7 2.2-1.7 6.2 0 4 1.7 6.2 1.7 2.3 4.6 2.3 3 0 4.7-2.3 1.7-2.2 1.7-6.2zm3.7-11v19.8q0 5.7-2.6 8.5-2.5 2.8-7.8 2.8-2 0-3.7-0.3-1.7-0.3-3.4-0.9v-3.6q1.7 0.9 3.3 1.3 1.5 0.5 3.2 0.5 3.6 0 5.4-1.9 1.9-1.9 1.9-5.8v-1.8q-1.2 2-3 3-1.8 1-4.3 1-4.1 0-6.6-3.2-2.6-3.2-2.6-8.4 0-5.2 2.6-8.4 2.5-3.1 6.6-3.1 2.5 0 4.3 0.9 1.8 1 3 3v-3.4zm26.7 10.4v1.8h-17q0.2 3.8 2.3 5.8 2 2 5.7 2 2.2 0 4.2-0.5 2-0.6 3.9-1.6v3.5q-2 0.8-4 1.3-2.1 0.4-4.3 0.4-5.4 0-8.5-3.1-3.2-3.1-3.2-8.5 0-5.5 3-8.8 3-3.2 8.1-3.2 4.5 0 7.1 2.9 2.7 2.9 2.7 8zm-16.9-1.1h13.2q0-3.1-1.7-4.9-1.7-1.8-4.4-1.8-3.1 0-5 1.8-1.8 1.7-2.1 4.9zm36.7-9.6v3.8q-0.6-0.4-1.4-0.6-0.7-0.1-1.6-0.1-3.1 0-4.8 2-1.7 2.1-1.7 5.9v11.9h-3.7v-22.6h3.7v3.5q1.2-2 3-3 1.9-1 4.6-1 0.4 0 0.8 0 0.5 0.1 1.1 0.2zm35.1-6.2v4q-2.3-1.2-4.4-1.7-2-0.5-3.9-0.5-3.4 0-5.2 1.2-1.8 1.3-1.8 3.7 0 2 1.2 3 1.2 1 4.6 1.7l2.4 0.5q4.6 0.8 6.7 3 2.2 2.2 2.2 5.9 0 4.3-2.9 6.6-2.9 2.2-8.6 2.2-2.1 0-4.6-0.4-2.3-0.5-4.9-1.5v-4.2q2.5 1.4 4.8 2.1 2.4 0.7 4.7 0.7 3.5 0 5.4-1.3 1.9-1.4 1.9-3.9 0-2.3-1.4-3.5-1.4-1.3-4.5-1.9l-2.4-0.5q-4.6-0.9-6.6-2.8-2-1.9-2-5.4 0-4 2.8-6.2 2.8-2.3 7.7-2.3 2.1 0 4.3 0.3 2.2 0.4 4.5 1.2zm21.8 17.7h-3.7q-4.5 0-6.3 1-1.7 1.1-1.7 3.5 0 2 1.3 3.2 1.3 1.1 3.5 1.1 3.1 0 5-2.1 1.9-2.2 1.9-5.9zm3.7-1.5v12.9h-3.7v-3.4q-1.3 2-3.2 3-1.9 1-4.6 1-3.5 0-5.6-2-2-1.9-2-5.2 0-3.8 2.5-5.7 2.6-2 7.7-2h5.2v-0.3q0-2.6-1.7-4-1.7-1.4-4.7-1.4-2 0-3.8 0.5-1.8 0.5-3.5 1.4v-3.4q2-0.8 3.9-1.2 1.9-0.4 3.7-0.4 4.9 0 7.3 2.5 2.5 2.6 2.5 7.7zm21.3 1.5h-3.7q-4.5 0-6.3 1.1-1.7 1-1.7 3.5 0 1.9 1.3 3.1 1.3 1.2 3.5 1.2 3.1 0 5-2.2 1.9-2.2 1.9-5.8zm3.7-1.6v12.9h-3.7v-3.4q-1.3 2-3.2 3-1.9 1-4.6 1-3.5 0-5.6-1.9-2-2-2-5.3 0-3.8 2.5-5.7 2.6-1.9 7.7-1.9h5.2v-0.4q0-2.5-1.7-3.9-1.7-1.4-4.7-1.4-2 0-3.8 0.4-1.8 0.5-3.5 1.4v-3.4q2-0.8 3.9-1.2 1.9-0.4 3.7-0.4 4.9 0 7.3 2.6 2.5 2.5 2.5 7.6zm25.5-16.2v4q-2.3-1.1-4.4-1.6-2-0.6-3.9-0.6-3.4 0-5.2 1.3-1.8 1.3-1.8 3.7 0 2 1.2 3 1.2 1 4.6 1.6l2.4 0.5q4.6 0.9 6.7 3.1 2.2 2.1 2.2 5.8 0 4.4-2.9 6.6-2.9 2.3-8.6 2.3-2.1 0-4.6-0.5-2.3-0.5-4.9-1.4v-4.2q2.5 1.4 4.8 2.1 2.4 0.7 4.7 0.7 3.5 0 5.4-1.4 1.9-1.4 1.9-3.9 0-2.2-1.4-3.5-1.4-1.2-4.5-1.8l-2.4-0.5q-4.6-0.9-6.6-2.8-2-2-2-5.4 0-4 2.8-6.3 2.8-2.3 7.7-2.3 2.1 0 4.3 0.4 2.2 0.4 4.5 1.1z"/><path class="z" d="m355.7 270v-20.3h4.1l5.2 13.8 5.2-13.8h4.1v20.3h-2.7v-17.8l-5.2 13.9h-2.8l-5.2-13.9v17.8zm33.3-7.6h-2.5q-3 0-4.2 0.7-1.2 0.6-1.2 2.3 0 1.3 0.9 2.1 0.9 0.8 2.4 0.8 2.1 0 3.3-1.5 1.3-1.4 1.3-3.9zm2.5-1v8.7h-2.5v-2.3q-0.9 1.3-2.2 2-1.2 0.6-3.1 0.6-2.3 0-3.7-1.3-1.4-1.3-1.4-3.5 0-2.5 1.7-3.8 1.8-1.3 5.2-1.3h3.5v-0.3q0-1.7-1.2-2.6-1.1-1-3.1-1-1.4 0-2.6 0.3-1.2 0.3-2.4 1v-2.3q1.4-0.6 2.7-0.8 1.3-0.3 2.5-0.3 3.3 0 4.9 1.7 1.7 1.7 1.7 5.2zm5-10.9h2.5v4.4h5.2v1.9h-5.2v8.3q0 1.8 0.5 2.3 0.6 0.6 2.1 0.6h2.6v2.1h-2.6q-2.9 0-4-1.1-1.1-1.1-1.1-3.9v-8.3h-1.8v-1.9h1.8zm20.9 19.5v-2.3h4.5v-15.5l-4.9 1v-2.5l4.9-1h2.7v18h4.5v2.3zm16.5-10.1v-10.2h10.8v2.3h-8.3v5q0.6-0.2 1.2-0.3 0.6-0.1 1.2-0.1 3.4 0 5.4 1.8 2 1.9 2 5.1 0 3.2-2.1 5.1-2 1.8-5.7 1.8-1.3 0-2.6-0.3-1.3-0.2-2.7-0.6v-2.8q1.2 0.7 2.5 1 1.3 0.4 2.7 0.4 2.4 0 3.8-1.3 1.3-1.2 1.3-3.3 0-2.1-1.3-3.4-1.4-1.2-3.8-1.2-1.1 0-2.2 0.2-1 0.3-2.2 0.8zm20.4 7.8h9.5v2.3h-12.8v-2.3q1.5-1.7 4.2-4.4 2.7-2.7 3.4-3.5 1.3-1.5 1.8-2.5 0.6-1 0.6-2 0-1.6-1.2-2.6-1.1-1-2.9-1-1.3 0-2.8 0.4-1.4 0.5-3 1.4v-2.8q1.7-0.7 3.1-1 1.4-0.3 2.6-0.3 3.2 0 5 1.5 1.9 1.6 1.9 4.2 0 1.3-0.5 2.4-0.4 1.1-1.7 2.6-0.3 0.4-2.1 2.3-1.8 1.9-5.1 5.3zm21.5-16.2q-2.2 0-3.2 2.1-1.1 2.1-1.1 6.3 0 4.1 1.1 6.2 1 2.1 3.2 2.1 2.1 0 3.1-2.1 1.1-2.1 1.1-6.2 0-4.2-1.1-6.3-1-2.1-3.1-2.1zm0-2.1q3.4 0 5.2 2.7 1.8 2.6 1.8 7.8 0 5.1-1.8 7.8-1.8 2.7-5.2 2.7-3.4 0-5.3-2.7-1.7-2.7-1.7-7.8 0-5.2 1.7-7.8 1.9-2.7 5.3-2.7z"/><path class="A" d="m172.1 167.1v-3.7h-3v-1.5h4.8v5.8q-1.1 0.8-2.3 1.2-1.3 0.4-2.8 0.4-3.2 0-5-1.9-1.8-1.9-1.8-5.2 0-3.3 1.8-5.2 1.8-1.8 5-1.8 1.3 0 2.5 0.3 1.2 0.3 2.2 1v1.9q-1-0.8-2.1-1.3-1.2-0.4-2.4-0.4-2.5 0-3.8 1.4-1.2 1.4-1.2 4.1 0 2.8 1.2 4.2 1.3 1.4 3.8 1.4 0.9 0 1.7-0.2 0.8-0.2 1.4-0.5zm8.6-7.1q-1.3 0-2.1 1-0.8 1.1-0.8 2.9 0 1.8 0.8 2.9 0.7 1 2.1 1 1.3 0 2.1-1 0.8-1.1 0.8-2.9 0-1.8-0.8-2.8-0.8-1.1-2.1-1.1zm0-1.4q2.2 0 3.4 1.4 1.3 1.4 1.3 3.9 0 2.5-1.3 3.9-1.2 1.5-3.4 1.5-2.2 0-3.4-1.5-1.3-1.4-1.3-3.9 0-2.5 1.3-3.9 1.2-1.4 3.4-1.4zm14.1 3.5q0-1.2 0.8-1.9 0.8-0.8 1.9-0.8 1.1 0 1.9 0.8 0.8 0.7 0.8 1.9 0 1.1-0.8 1.9-0.8 0.8-1.9 0.8-1.1 0-1.9-0.8-0.8-0.8-0.8-1.9zm25.3 5v-3.7h-3v-1.5h4.8v5.8q-1.1 0.8-2.3 1.2-1.3 0.4-2.8 0.4-3.2 0-5-1.9-1.8-1.9-1.8-5.2 0-3.3 1.8-5.2 1.8-1.8 5-1.8 1.3 0 2.5 0.3 1.2 0.3 2.2 1v1.9q-1-0.8-2.1-1.3-1.2-0.4-2.4-0.4-2.5 0-3.8 1.4-1.2 1.4-1.2 4.1 0 2.8 1.2 4.2 1.3 1.4 3.8 1.4 0.9 0 1.7-0.2 0.8-0.2 1.4-0.5zm5.7 1.9v-10.2h1.6v10.2zm0-12v-2.1h1.7v2.1zm13.5 5.9v6.1h-1.7v-6.1q0-1.4-0.6-2.2-0.5-0.7-1.7-0.7-1.3 0-2.1 0.9-0.8 0.9-0.8 2.3v5.8h-1.7v-10.2h1.7v1.6q0.6-0.9 1.4-1.4 0.8-0.4 1.9-0.4 1.8 0 2.7 1.1 0.9 1 0.9 3.2zm9.6 6.1v-13.6h7.8v1.6h-6v4h5.4v1.5h-5.4v6.5zm14.8-10.3v1.7q-0.2-0.2-0.6-0.3-0.3 0-0.7 0-1.4 0-2.2 0.9-0.7 0.9-0.7 2.6v5.4h-1.7v-10.2h1.7v1.6q0.5-0.9 1.3-1.4 0.9-0.4 2.1-0.4 0.2 0 0.4 0 0.2 0 0.4 0.1zm8.4 5.2h-1.6q-2.1 0-2.8 0.4-0.8 0.5-0.8 1.6 0 0.9 0.6 1.4 0.5 0.6 1.6 0.6 1.3 0 2.2-1 0.8-1 0.8-2.6zm1.7-0.7v5.8h-1.7v-1.6q-0.5 1-1.4 1.4-0.9 0.4-2.1 0.4-1.6 0-2.5-0.8-0.9-0.9-0.9-2.4 0-1.7 1.1-2.6 1.2-0.9 3.5-0.9h2.3v-0.1q0-1.2-0.7-1.8-0.8-0.6-2.2-0.6-0.8 0-1.7 0.2-0.8 0.2-1.6 0.6v-1.5q1-0.4 1.8-0.6 0.9-0.2 1.7-0.2 2.2 0 3.3 1.2 1.1 1.1 1.1 3.5zm11-2.5q0.6-1.1 1.5-1.6 0.8-0.6 2-0.6 1.6 0 2.5 1.2 0.8 1.1 0.8 3.1v6.2h-1.6v-6.1q0-1.5-0.6-2.2-0.5-0.7-1.5-0.7-1.3 0-2.1 0.9-0.8 0.8-0.8 2.3v5.8h-1.6v-6.1q0-1.5-0.6-2.2-0.5-0.7-1.6-0.7-1.2 0-2 0.9-0.7 0.8-0.7 2.3v5.8h-1.7v-10.2h1.7v1.6q0.5-1 1.3-1.4 0.8-0.5 1.9-0.5 1.1 0 1.9 0.6 0.8 0.6 1.2 1.6zm18.7 2.8v0.8h-7.6q0.1 1.7 1 2.6 0.9 0.9 2.6 0.9 1 0 1.9-0.2 0.9-0.3 1.8-0.7v1.6q-0.9 0.3-1.9 0.5-0.9 0.2-1.9 0.2-2.4 0-3.9-1.4-1.4-1.4-1.4-3.8 0-2.5 1.4-4 1.3-1.5 3.6-1.5 2.1 0 3.2 1.4 1.2 1.3 1.2 3.6zm-7.6-0.5h6q0-1.4-0.8-2.2-0.7-0.8-2-0.8-1.4 0-2.2 0.8-0.9 0.7-1 2.2zm12.6 6l-2.6-10.2h1.6l2.1 7.9 2.1-7.9h2l2.1 7.9 2.1-7.9h1.6l-2.6 10.2h-2l-2.2-8.4-2.2 8.4zm17.3-9q-1.4 0-2.2 1-0.8 1.1-0.8 2.9 0 1.8 0.8 2.9 0.8 1 2.2 1 1.3 0 2.1-1 0.8-1.1 0.8-2.9 0-1.8-0.8-2.9-0.8-1-2.1-1zm0-1.5q2.1 0 3.4 1.5 1.2 1.4 1.2 3.9 0 2.5-1.2 3.9-1.3 1.4-3.4 1.4-2.2 0-3.5-1.4-1.2-1.4-1.2-3.9 0-2.5 1.2-3.9 1.3-1.5 3.5-1.5zm12.9 0.1v1.8q-0.3-0.2-0.6-0.3-0.3-0.1-0.7-0.1-1.5 0-2.2 1-0.8 0.9-0.8 2.6v5.4h-1.7v-10.2h1.7v1.6q0.6-1 1.4-1.4 0.8-0.5 2.1-0.5 0.1 0 0.3 0.1 0.2 0 0.5 0zm2 10.4v-14.2h1.7v8.4l5-4.4h2.2l-5.4 4.8 5.6 5.4h-2.2l-5.2-5v5zm18.1-7q0-1.1 0.8-1.9 0.8-0.7 1.9-0.7 1.2 0 1.9 0.7 0.8 0.8 0.8 1.9 0 1.2-0.8 2-0.7 0.7-1.9 0.7-1.1 0-1.9-0.7-0.8-0.8-0.8-2zm19.2-5.1h-2.3v5.1h2.3q1.3 0 2-0.7 0.7-0.6 0.7-1.8 0-1.3-0.7-1.9-0.7-0.7-2-0.7zm-4.1 12.1v-13.6h4.1q2.3 0 3.5 1 1.1 1.1 1.1 3.1 0 2-1.1 3-1.2 1-3.5 1h-2.3v5.5zm14.9-9q-1.4 0-2.2 1-0.7 1.1-0.7 2.9 0 1.8 0.7 2.9 0.8 1 2.2 1 1.3 0 2.1-1 0.8-1.1 0.8-2.9 0-1.8-0.8-2.9-0.8-1-2.1-1zm0-1.5q2.2 0 3.4 1.5 1.2 1.4 1.2 3.9 0 2.5-1.2 3.9-1.2 1.4-3.4 1.4-2.2 0-3.5-1.4-1.2-1.4-1.2-3.9 0-2.5 1.2-3.9 1.3-1.5 3.5-1.5zm13.5 0.6v1.6q-0.7-0.4-1.5-0.6-0.7-0.2-1.5-0.2-1.3 0-1.9 0.4-0.6 0.4-0.6 1.2 0 0.6 0.4 0.9 0.5 0.3 1.8 0.6l0.6 0.1q1.8 0.4 2.5 1.1 0.8 0.7 0.8 2 0 1.4-1.2 2.2-1.1 0.8-3 0.8-0.9 0-1.8-0.1-0.8-0.2-1.8-0.5v-1.7q0.9 0.5 1.8 0.7 0.9 0.2 1.8 0.2 1.2 0 1.8-0.4 0.6-0.4 0.6-1.1 0-0.7-0.4-1.1-0.5-0.3-2-0.7l-0.6-0.1q-1.6-0.3-2.3-1-0.6-0.7-0.6-1.9 0-1.4 1-2.2 1-0.8 2.9-0.8 0.9 0 1.7 0.2 0.8 0.1 1.5 0.4zm3.5-3.2h1.7v2.9h3.4v1.3h-3.4v5.5q0 1.3 0.3 1.6 0.4 0.4 1.4 0.4h1.7v1.4h-1.7q-1.9 0-2.7-0.7-0.7-0.8-0.7-2.7v-5.5h-1.2v-1.3h1.2zm13.7 7.9q0-1.9-0.7-2.9-0.8-1-2.1-1-1.4 0-2.1 1-0.8 1-0.8 2.9 0 1.8 0.8 2.8 0.7 1 2.1 1 1.3 0 2.1-1 0.7-1 0.7-2.8zm1.7-5v8.9q0 2.6-1.2 3.9-1.1 1.2-3.5 1.2-0.9 0-1.7-0.1-0.7-0.1-1.5-0.4v-1.6q0.8 0.4 1.5 0.6 0.7 0.2 1.4 0.2 1.7 0 2.5-0.9 0.8-0.9 0.8-2.6v-0.8q-0.5 0.9-1.3 1.3-0.8 0.5-1.9 0.5-1.9 0-3.1-1.5-1.1-1.4-1.1-3.7 0-2.4 1.1-3.8 1.2-1.5 3.1-1.5 1.1 0 1.9 0.5 0.8 0.4 1.3 1.3v-1.5zm9.5-0.2l0.1 1.7q-0.3-0.1-0.7-0.2-0.3-0.1-0.7-0.1-1.4 0-2.2 1-0.7 0.9-0.7 2.6v5.4h-1.7v-10.2h1.7v1.6q0.5-1 1.3-1.4 0.9-0.5 2.1-0.5 0.2 0 0.4 0.1 0.2 0 0.4 0zm10.9 4.9v0.8h-7.7q0.1 1.7 1 2.6 0.9 0.9 2.6 0.9 1 0 1.9-0.2 0.9-0.3 1.8-0.7v1.5q-0.9 0.4-1.9 0.6-0.9 0.2-1.9 0.2-2.4 0-3.9-1.4-1.4-1.4-1.4-3.8 0-2.5 1.4-4 1.3-1.5 3.6-1.5 2.1 0 3.3 1.4 1.2 1.3 1.2 3.6zm-7.7-0.5h6q0-1.4-0.8-2.2-0.7-0.8-2-0.8-1.4 0-2.2 0.7-0.8 0.8-1 2.3zm18.2-7.2v1.8q-1.1-0.5-2-0.7-0.9-0.3-1.8-0.3-1.5 0-2.3 0.6-0.8 0.6-0.8 1.7 0 0.9 0.5 1.3 0.6 0.5 2.1 0.8l1.1 0.2q2 0.4 3 1.4 1 1 1 2.6 0 2-1.3 3-1.4 1-3.9 1-1 0-2.1-0.2-1.1-0.2-2.2-0.6v-1.9q1.1 0.6 2.2 0.9 1 0.3 2.1 0.3 1.6 0 2.4-0.6 0.9-0.6 0.9-1.7 0-1-0.7-1.6-0.6-0.6-2-0.9l-1.1-0.2q-2-0.4-3-1.3-0.9-0.8-0.9-2.4 0-1.8 1.3-2.8 1.3-1.1 3.5-1.1 0.9 0 1.9 0.2 1 0.2 2.1 0.5zm9.3 0.8q-2 0-3.1 1.5-1.2 1.5-1.2 4.1 0 2.6 1.2 4 1.1 1.5 3.1 1.5 2 0 3.2-1.5 1.2-1.4 1.2-4 0-2.6-1.2-4.1-1.2-1.5-3.2-1.5zm2.6 12.1l2.4 2.7h-2.2l-2-2.2q-0.3 0-0.5 0-0.1 0-0.3 0-2.8 0-4.5-1.9-1.8-1.9-1.8-5.1 0-3.2 1.8-5.1 1.7-2 4.5-2 2.9 0 4.6 2 1.7 1.9 1.7 5.1 0 2.4-0.9 4-1 1.7-2.8 2.5zm5.9 0.3v-13.6h1.9v12h6.6v1.6z"/></svg>