<svg version="1.2" xmlns="http://www.w3.org/2000/svg" viewBox="0 0 800 450" width="800" height="450"><defs><linearGradient id="P" gradientUnits="userSpaceOnUse"/><linearGradient id="g1" x2="1" href="#P" gradientTransform="matrix(800,450,-800,450,0,0)"><stop stop-color="#0f172a"/><stop offset="1" stop-color="#1a2332"/></linearGradient><linearGradient id="g2" x2="1" href="#P" gradientTransform="matrix(100,80,-100,80,319,220)"><stop stop-color="#fbbf24"/><stop offset="1" stop-color="#f59e0b"/></linearGradient><linearGradient id="g3" x2="1" href="#P" gradientTransform="matrix(80,53.333,-80,53.333,328,171.333)"><stop stop-color="#fbbf24"/><stop offset="1" stop-color="#f59e0b"/></linearGradient></defs><style>.a{fill:url(#g1)}.b{opacity:.1;fill:#10b981}.c{opacity:.08;fill:#10b981}.d{fill:#1e293b}.e{opacity:.5;fill:none;stroke:#334155;stroke-width:3}.f{fill:url(#g2)}.g{fill:none;stroke:url(#g3);stroke-linecap:round;stroke-width:8}.h{fill:#0f172a}.i{opacity:.9;fill:#10b981}.j{fill:none;stroke:#fff;stroke-linecap:round;stroke-linejoin:round;stroke-width:4}.k{opacity:.6;fill:#94a3b8}.l{fill:#fff}.m{fill:#10b981}</style><path class="a" d="m0 0h800v450h-800z"/><path class="b" d="m120 125c-24.9 0-45-20.1-45-45 0-24.9 20.1-45 45-45 24.9 0 45 20.1 45 45 0 24.9-20.1 45-45 45z"/><path class="b" d="m52 173c-12.7 0-23-10.3-23-23 0-12.7 10.3-23 23-23 12.7 0 23 10.3 23 23 0 12.7-10.3 23-23 23z"/><path class="b" d="m132 225c-22.7 0-41-18.3-41-41 0-22.7 18.3-41 41-41 22.7 0 41 18.3 41 41 0 22.7-18.3 41-41 41z"/><path class="c" d="m680 435c-30.4 0-55-24.6-55-55 0-30.4 24.6-55 55-55 30.4 0 55 24.6 55 55 0 30.4-24.6 55-55 55z"/><path class="c" d="m719.8 314.5c-13.7 0-24.8-11.1-24.8-24.8 0-13.6 11.1-24.7 24.8-24.7 13.6 0 24.7 11.1 24.7 24.8 0 13.6-11.1 24.7-24.7 24.7z"/><path class="c" d="m650.3 317.5c-19 0-34.3-15.3-34.3-34.3 0-18.9 15.3-34.2 34.3-34.2 18.9 0 34.2 15.3 34.2 34.2 0 19-15.3 34.3-34.2 34.3z"/><path class="d" d="m214.8 80h339.2c8.2 0 14.8 6.6 14.8 14.8v247c0 8.2-6.6 14.8-14.8 14.8h-339.2c-8.2 0-14.8-6.6-14.8-14.8v-247c0-8.2 6.6-14.8 14.8-14.8z"/><path class="e" d="m214.9 80h343c8.2 0 14.9 6.7 14.9 14.9v249.8c0 8.2-6.7 14.9-14.9 14.9h-343c-8.2 0-14.9-6.7-14.9-14.9v-249.8c0-8.2 6.7-14.9 14.9-14.9z"/><path class="f" d="m327 220h84c4.4 0 8 3.6 8 8v64c0 4.4-3.6 8-8 8h-84c-4.4 0-8-3.6-8-8v-64c0-4.4 3.6-8 8-8z"/><path class="g" d="m328 224.7q0-53.4 40-53.4 40 0 40 53.4"/><path class="h" d="m370 249c-4.4 0-8-3.6-8-8 0-4.4 3.6-8 8-8 4.4 0 8 3.6 8 8 0 4.4-3.6 8-8 8z"/><path class="h" d="m371 264c-2.8 0-5-2.2-5-5 0-2.8 2.2-5 5-5 2.8 0 5 2.2 5 5 0 2.8-2.2 5-5 5z"/><path class="i" d="m511 91h50v30q0 30-25 45-25-15-25-45z"/><path class="j" d="m521 125.5l12.5 12.5 20-25"/><path class="k" d="m337 316c-2.2 0-4-1.8-4-4 0-2.2 1.8-4 4-4 2.2 0 4 1.8 4 4 0 2.2-1.8 4-4 4z"/><path class="k" d="m357 316c-2.2 0-4-1.8-4-4 0-2.2 1.8-4 4-4 2.2 0 4 1.8 4 4 0 2.2-1.8 4-4 4z"/><path class="k" d="m377 316c-2.2 0-4-1.8-4-4 0-2.2 1.8-4 4-4 2.2 0 4 1.8 4 4 0 2.2-1.8 4-4 4z"/><path class="k" d="m397 317c-2.2 0-4-1.8-4-4 0-2.2 1.8-4 4-4 2.2 0 4 1.8 4 4 0 2.2-1.8 4-4 4z"/><path class="l" d="m233.8 104.1v2.3q-1.3-0.7-2.5-1-1.2-0.3-2.3-0.3-1.9 0-3 0.8-1 0.7-1 2.1 0 1.2 0.7 1.8 0.7 0.5 2.6 0.9l1.4 0.3q2.7 0.5 3.9 1.8 1.3 1.2 1.3 3.4 0 2.5-1.7 3.8-1.7 1.3-5 1.3-1.2 0-2.7-0.2-1.3-0.3-2.8-0.9v-2.4q1.4 0.8 2.8 1.2 1.4 0.4 2.7 0.4 2 0 3.1-0.8 1.1-0.8 1.1-2.3 0-1.2-0.8-2-0.8-0.7-2.6-1.1l-1.4-0.2q-2.7-0.6-3.8-1.7-1.2-1.1-1.2-3.1 0-2.3 1.6-3.7 1.7-1.3 4.5-1.3 1.3 0 2.5 0.2 1.3 0.2 2.6 0.7zm15.7 9.8v1.1h-9.9q0.1 2.2 1.3 3.4 1.2 1.1 3.4 1.1 1.2 0 2.4-0.3 1.1-0.3 2.3-0.9v2q-1.2 0.5-2.4 0.8-1.2 0.2-2.5 0.2-3.1 0-4.9-1.8-1.9-1.8-1.9-4.9 0-3.3 1.8-5.1 1.7-1.9 4.7-1.9 2.6 0 4.1 1.7 1.6 1.7 1.6 4.6zm-9.9-0.6h7.7q0-1.8-1-2.9-0.9-1-2.5-1-1.8 0-2.9 1-1.1 1-1.3 2.9zm23.1-4.9v2q-0.9-0.5-1.8-0.8-0.9-0.2-1.9-0.2-2.1 0-3.2 1.3-1.2 1.3-1.2 3.7 0 2.5 1.2 3.8 1.1 1.3 3.2 1.3 1 0 1.9-0.2 0.9-0.3 1.8-0.8v2q-0.9 0.4-1.9 0.6-0.9 0.2-2 0.2-3 0-4.7-1.8-1.8-1.9-1.8-5.1 0-3.2 1.8-5 1.8-1.8 4.8-1.8 1 0 2 0.2 0.9 0.2 1.8 0.6zm3.3 7.4v-7.9h2.2v7.8q0 1.9 0.7 2.8 0.7 1 2.2 1 1.7 0 2.8-1.1 1-1.2 1-3.1v-7.4h2.1v13.1h-2.1v-2q-0.8 1.2-1.9 1.8-1 0.5-2.4 0.5-2.2 0-3.4-1.4-1.2-1.4-1.2-4.1zm5.5-8.2zm17.4 0.1v2.2q-0.4-0.2-0.8-0.3-0.5-0.1-1-0.1-1.8 0-2.8 1.2-1 1.2-1 3.4v6.9h-2.1v-13.1h2.1v2q0.7-1.2 1.8-1.8 1.1-0.5 2.7-0.5 0.2 0 0.5 0 0.2 0 0.6 0.1zm13.6 6.2v1.1h-9.9q0.1 2.2 1.3 3.4 1.2 1.1 3.4 1.1 1.2 0 2.4-0.3 1.1-0.3 2.3-0.9v2q-1.2 0.5-2.4 0.8-1.2 0.2-2.5 0.2-3.1 0-4.9-1.8-1.9-1.8-1.9-4.9 0-3.3 1.8-5.1 1.7-1.9 4.7-1.9 2.6 0 4.1 1.7 1.6 1.7 1.6 4.6zm-9.9-0.6h7.7q0-1.8-1-2.9-0.9-1-2.5-1-1.8 0-2.9 1-1.1 1-1.3 2.9zm21 7.7h-2.7l-6.7-17.5h2.5l5.5 14.7 5.6-14.7h2.4zm14.8-6.6h-2.1q-2.6 0-3.6 0.6-1 0.6-1 2 0 1.2 0.7 1.9 0.8 0.6 2.1 0.6 1.8 0 2.8-1.2 1.1-1.3 1.1-3.4zm2.2-0.9v7.5h-2.2v-2q-0.7 1.2-1.8 1.8-1.1 0.5-2.7 0.5-2 0-3.2-1.1-1.2-1.1-1.2-3 0-2.3 1.5-3.4 1.5-1.1 4.4-1.1h3v-0.2q0-1.5-0.9-2.3-1-0.8-2.8-0.8-1.1 0-2.2 0.2-1 0.3-2 0.8v-1.9q1.2-0.5 2.3-0.7 1.1-0.3 2.1-0.3 2.9 0 4.3 1.5 1.4 1.5 1.4 4.5zm4.5 2.3v-7.9h2.2v7.8q0 1.9 0.7 2.8 0.7 0.9 2.2 0.9 1.7 0 2.7-1.1 1-1.1 1-3v-7.4h2.2v13.1h-2.2v-2q-0.7 1.2-1.8 1.8-1 0.5-2.4 0.5-2.2 0-3.4-1.4-1.2-1.4-1.2-4.1zm5.4-8.3zm9.8 13.5v-18.2h2.2v18.2zm7-16.9h2.1v3.8h4.5v1.6h-4.5v7.2q0 1.6 0.5 2 0.4 0.5 1.7 0.5h2.3v1.8h-2.3q-2.5 0-3.4-0.9-0.9-1-0.9-3.4v-7.2h-1.6v-1.6h1.6zm17.1 16.8v-17.5h3.5l4.5 11.9 4.5-11.9h3.5v17.5h-2.3v-15.4l-4.5 12h-2.4l-4.5-12v15.4zm28-6.6h-2.2q-2.6 0-3.6 0.6-1 0.6-1 2.1 0 1.1 0.8 1.8 0.7 0.6 2 0.6 1.8 0 2.9-1.2 1.1-1.3 1.1-3.4zm2.1-0.9v7.5h-2.1v-2q-0.7 1.2-1.8 1.8-1.1 0.5-2.7 0.5-2.1 0-3.3-1.1-1.1-1.1-1.1-3 0-2.2 1.4-3.4 1.5-1.1 4.5-1.1h3v-0.2q0-1.5-1-2.3-1-0.8-2.7-0.8-1.2 0-2.2 0.2-1.1 0.3-2.1 0.9v-2q1.2-0.5 2.3-0.7 1.1-0.2 2.2-0.2 2.8 0 4.2 1.4 1.4 1.5 1.4 4.5zm15.7-0.4v7.9h-2.2v-7.9q0-1.8-0.7-2.7-0.7-1-2.2-1-1.7 0-2.7 1.1-1 1.2-1 3.1v7.4h-2.2v-13.1h2.2v2q0.7-1.2 1.8-1.8 1-0.5 2.4-0.5 2.3 0 3.4 1.4 1.2 1.4 1.2 4.1zm12.2 1.3h-2.2q-2.6 0-3.6 0.6-1 0.6-1 2 0 1.2 0.8 1.9 0.7 0.6 2 0.6 1.8 0 2.9-1.2 1.1-1.3 1.1-3.4zm2.1-0.9v7.5h-2.1v-2q-0.7 1.2-1.8 1.7-1.1 0.6-2.7 0.6-2.1 0-3.3-1.1-1.1-1.1-1.1-3 0-2.3 1.4-3.4 1.5-1.1 4.5-1.1h3v-0.2q0-1.5-1-2.3-1-0.8-2.7-0.8-1.2 0-2.2 0.2-1.1 0.3-2.1 0.8v-2q1.2-0.4 2.3-0.6 1.1-0.3 2.2-0.3 2.8 0 4.2 1.5 1.4 1.5 1.4 4.5zm13.4 0.8q0-2.4-1-3.7-0.9-1.3-2.7-1.3-1.7 0-2.7 1.3-0.9 1.3-0.9 3.7 0 2.3 0.9 3.6 1 1.3 2.7 1.3 1.8 0 2.7-1.3 1-1.3 1-3.6zm2.2-6.5v11.5q0 3.4-1.5 5-1.5 1.7-4.6 1.7-1.1 0-2.1-0.2-1-0.2-2-0.5v-2.1q1 0.5 1.9 0.7 0.9 0.3 1.9 0.3 2.1 0 3.2-1.1 1-1.1 1-3.4v-1q-0.6 1.1-1.7 1.7-1 0.6-2.5 0.6-2.4 0-3.9-1.9-1.5-1.8-1.5-4.8 0-3.1 1.5-4.9 1.5-1.9 3.9-1.9 1.5 0 2.5 0.6 1.1 0.6 1.7 1.7v-2zm15.5 6.1v1h-10q0.2 2.3 1.4 3.4 1.2 1.2 3.3 1.2 1.3 0 2.4-0.3 1.2-0.3 2.3-0.9v2q-1.1 0.5-2.3 0.8-1.2 0.2-2.5 0.2-3.1 0-5-1.8-1.8-1.8-1.8-5 0-3.2 1.7-5.1 1.8-1.9 4.7-1.9 2.7 0 4.2 1.7 1.6 1.7 1.6 4.7zm-9.9-0.7h7.7q0-1.7-1-2.8-1-1-2.6-1-1.8 0-2.8 1-1.1 1-1.3 2.8zm21.2-5.6v2.3q-0.3-0.2-0.8-0.3-0.4-0.1-0.9-0.1-1.8 0-2.8 1.1-1 1.2-1 3.5v6.9h-2.2v-13.2h2.2v2.1q0.7-1.2 1.8-1.8 1.1-0.6 2.6-0.6 0.3 0 0.5 0.1 0.3 0 0.6 0z"/><path class="m" d="m216.2 146.5l-1.7-4.8-1.8 4.8zm-6.1 3.5l3.6-9.5h1.5l3.6 9.5h-1.3l-0.9-2.4h-4.3l-0.8 2.4zm10.1 0v-9.5h6.1v1.1h-4.8v2.8h4.6v1.1h-4.6v3.4h4.9v1.1zm13.7-9.2v1.2q-0.7-0.3-1.4-0.5-0.6-0.2-1.2-0.2-1.1 0-1.7 0.5-0.5 0.4-0.5 1.1 0 0.6 0.3 1 0.4 0.3 1.5 0.5l0.8 0.1q1.4 0.3 2.1 1 0.7 0.7 0.7 1.9 0 1.4-1 2.1-0.9 0.7-2.7 0.7-0.7 0-1.4-0.2-0.8-0.1-1.6-0.4v-1.3q0.8 0.4 1.5 0.6 0.8 0.2 1.5 0.2 1.1 0 1.7-0.4 0.6-0.4 0.6-1.2 0-0.7-0.4-1.1-0.4-0.4-1.4-0.6l-0.8-0.2q-1.5-0.3-2.1-0.9-0.6-0.6-0.6-1.7 0-1.2 0.8-2 0.9-0.7 2.5-0.7 0.7 0 1.4 0.1 0.7 0.1 1.4 0.4zm1.6 6.1v-1h3.5v1zm6.8 2h4.6v1.1h-6.1v-1.1q0.7-0.7 2-2 1.3-1.3 1.6-1.7 0.6-0.7 0.9-1.2 0.2-0.4 0.2-0.9 0-0.8-0.5-1.2-0.6-0.5-1.4-0.5-0.6 0-1.3 0.2-0.7 0.2-1.4 0.6v-1.3q0.7-0.3 1.4-0.4 0.7-0.2 1.3-0.2 1.4 0 2.3 0.7 0.9 0.8 0.9 2 0 0.6-0.2 1.1-0.2 0.6-0.8 1.3-0.2 0.2-1 1-0.9 0.9-2.5 2.5zm7-3.6v-4.8h5v1.1h-3.9v2.3q0.3-0.1 0.6-0.2 0.3 0 0.6 0 1.6 0 2.5 0.9 0.9 0.8 0.9 2.3 0 1.6-0.9 2.4-1 0.9-2.7 0.9-0.6 0-1.3-0.1-0.6-0.1-1.3-0.3v-1.3q0.6 0.3 1.2 0.4 0.6 0.2 1.3 0.2 1.1 0 1.8-0.6 0.6-0.6 0.6-1.6 0-1-0.6-1.5-0.7-0.6-1.8-0.6-0.5 0-1 0.1-0.5 0.1-1 0.4zm10.9-0.6q-0.9 0-1.4 0.6-0.5 0.6-0.5 1.6 0 1.1 0.5 1.7 0.5 0.6 1.4 0.6 0.8 0 1.3-0.6 0.5-0.6 0.5-1.7 0-1-0.5-1.6-0.5-0.6-1.3-0.6zm2.5-4v1.2q-0.5-0.3-1-0.4-0.5-0.1-0.9-0.1-1.3 0-2 0.8-0.7 0.9-0.8 2.6 0.4-0.5 1-0.8 0.5-0.3 1.2-0.3 1.5 0 2.3 0.9 0.8 0.8 0.8 2.3 0 1.5-0.8 2.4-0.9 0.9-2.3 0.9-1.7 0-2.6-1.3-0.8-1.2-0.8-3.7 0-2.2 1-3.6 1.1-1.3 2.9-1.3 0.5 0 1 0.1 0.5 0.1 1 0.3zm7.4 9.3v-9.5h6.1v1.1h-4.8v2.8h4.6v1.1h-4.6v3.4h4.9v1.1zm13.9-4.3v4.3h-1.2v-4.3q0-1-0.4-1.5-0.4-0.5-1.2-0.5-1 0-1.5 0.6-0.5 0.6-0.5 1.7v4h-1.2v-7.2h1.2v1.2q0.4-0.7 0.9-1 0.6-0.3 1.4-0.3 1.2 0 1.8 0.7 0.7 0.8 0.7 2.3zm7.2-2.6v1.1q-0.5-0.3-1-0.4-0.5-0.1-1.1-0.1-1.1 0-1.7 0.7-0.7 0.7-0.7 2 0 1.3 0.7 2.1 0.6 0.7 1.7 0.7 0.6 0 1.1-0.1 0.5-0.2 1-0.5v1.1q-0.5 0.3-1.1 0.4-0.5 0.1-1.1 0.1-1.6 0-2.5-1-1-1-1-2.8 0-1.7 1-2.7 0.9-1 2.6-1 0.5 0 1.1 0.1 0.5 0.1 1 0.3zm7-0.4v1.2q-0.2-0.1-0.5-0.1-0.2-0.1-0.5-0.1-1 0-1.5 0.7-0.5 0.6-0.5 1.8v3.8h-1.2v-7.2h1.2v1.2q0.3-0.7 0.9-1 0.6-0.3 1.5-0.3 0.1 0 0.2 0 0.2 0 0.4 0zm6.9 0.1l-3.1 7.9q-0.5 1.2-1 1.6-0.5 0.4-1.2 0.4h-1v-1h0.7q0.5 0 0.8-0.2 0.2-0.2 0.6-1.1l0.2-0.5-2.9-7.1h1.2l2.3 5.6 2.2-5.6zm3 6.1v3.8h-1.2v-9.9h1.2v1.1q0.4-0.6 0.9-0.9 0.6-0.3 1.4-0.3 1.3 0 2.1 1 0.8 1 0.8 2.7 0 1.7-0.8 2.8-0.8 1-2.1 1-0.8 0-1.4-0.3-0.5-0.3-0.9-1zm4-2.5q0-1.3-0.5-2-0.6-0.7-1.5-0.7-0.9 0-1.5 0.7-0.5 0.7-0.5 2 0 1.3 0.5 2.1 0.6 0.7 1.5 0.7 0.9 0 1.5-0.7 0.5-0.8 0.5-2.1zm2.8-5.6h1.2v2h2.5v1h-2.5v3.8q0 0.9 0.3 1.2 0.2 0.2 0.9 0.2h1.3v1h-1.3q-1.3 0-1.8-0.5-0.6-0.5-0.6-1.9v-3.8h-0.8v-1h0.8zm5.1 9.2v-7.1h1.1v7.1zm0-8.4v-1.5h1.2v1.5zm6.8 2.1q-1 0-1.5 0.7-0.6 0.8-0.6 2.1 0 1.2 0.6 2 0.5 0.7 1.5 0.7 0.9 0 1.5-0.7 0.5-0.8 0.5-2 0-1.3-0.5-2.1-0.6-0.7-1.5-0.7zm0-1q1.5 0 2.4 1 0.9 1 0.9 2.8 0 1.7-0.9 2.7-0.9 1-2.4 1-1.5 0-2.4-1-0.9-1-0.9-2.7 0-1.8 0.9-2.8 0.9-1 2.4-1zm11.2 3v4.3h-1.2v-4.2q0-1.1-0.4-1.6-0.4-0.5-1.2-0.5-0.9 0-1.5 0.6-0.5 0.6-0.5 1.7v4h-1.2v-7.1h1.2v1.1q0.4-0.7 0.9-1 0.6-0.3 1.4-0.3 1.2 0 1.8 0.8 0.7 0.7 0.7 2.2zm6.7-0.5q0-0.8 0.6-1.4 0.6-0.5 1.4-0.5 0.7 0 1.3 0.5 0.5 0.6 0.5 1.4 0 0.8-0.5 1.3-0.6 0.6-1.4 0.6-0.8 0-1.3-0.6-0.6-0.5-0.6-1.3zm11.4 4.8v-9.5h1.9l2.4 6.5 2.5-6.5h1.9v9.5h-1.3v-8.3l-2.4 6.5h-1.3l-2.5-6.5v8.3zm15.4-3.6h-1.2q-1.4 0-2 0.4-0.5 0.3-0.5 1.1 0 0.6 0.4 1 0.4 0.3 1.1 0.3 1 0 1.6-0.7 0.6-0.7 0.6-1.8zm1.2-0.5v4.1h-1.2v-1.1q-0.4 0.7-1 1-0.6 0.3-1.5 0.3-1.1 0-1.7-0.6-0.7-0.7-0.7-1.7 0-1.2 0.8-1.8 0.8-0.6 2.4-0.6h1.7v-0.1q0-0.8-0.5-1.3-0.6-0.4-1.5-0.4-0.7 0-1.2 0.1-0.6 0.2-1.2 0.5v-1.1q0.7-0.3 1.3-0.4 0.6-0.1 1.2-0.1 1.5 0 2.3 0.8 0.8 0.8 0.8 2.4zm6.9-2.8v1.1q-0.5-0.3-1-0.4-0.5-0.1-1.1-0.1-0.9 0-1.3 0.2-0.5 0.3-0.5 0.8 0 0.4 0.3 0.7 0.4 0.2 1.3 0.4l0.4 0.1q1.3 0.3 1.8 0.8 0.5 0.4 0.5 1.3 0 1-0.8 1.6-0.8 0.6-2.1 0.6-0.6 0-1.2-0.1-0.7-0.1-1.4-0.4v-1.2q0.7 0.4 1.3 0.5 0.7 0.2 1.3 0.2 0.8 0 1.3-0.3 0.4-0.3 0.4-0.8 0-0.5-0.3-0.7-0.3-0.3-1.4-0.5l-0.4-0.1q-1.1-0.2-1.6-0.7-0.5-0.5-0.5-1.3 0-1 0.7-1.6 0.7-0.5 2-0.5 0.7 0 1.3 0.1 0.5 0.1 1 0.3zm2.5-2.3h1.1v2h2.5v1h-2.5v3.8q0 0.9 0.3 1.2 0.2 0.2 0.9 0.2h1.3v1h-1.3q-1.3 0-1.8-0.5-0.5-0.5-0.5-1.9v-3.8h-0.9v-1h0.9zm11.1 5.4v0.5h-5.4q0.1 1.2 0.7 1.9 0.7 0.6 1.8 0.6 0.7 0 1.3-0.2 0.7-0.1 1.3-0.5v1.2q-0.6 0.2-1.3 0.4-0.6 0.1-1.3 0.1-1.7 0-2.7-1-1-1-1-2.7 0-1.7 0.9-2.8 1-1 2.6-1 1.4 0 2.2 0.9 0.9 1 0.9 2.6zm-5.4-0.4h4.2q0-1-0.5-1.5-0.6-0.6-1.4-0.6-1 0-1.6 0.6-0.6 0.5-0.7 1.5zm11.4-3v1.2q-0.2-0.1-0.4-0.2-0.2-0.1-0.5-0.1-1 0-1.6 0.7-0.5 0.6-0.5 1.9v3.7h-1.2v-7.1h1.2v1.1q0.4-0.7 1-1 0.6-0.3 1.4-0.3 0.1 0 0.3 0 0.1 0 0.3 0.1zm10.9 3.7l-1.8-4.7-1.7 4.7zm-6.2 3.5l3.7-9.5h1.4l3.7 9.5h-1.4l-0.8-2.4h-4.3l-0.9 2.4zm10-2.8v-4.3h1.2v4.3q0 1 0.4 1.5 0.4 0.5 1.2 0.5 0.9 0 1.5-0.6 0.5-0.6 0.5-1.7v-4h1.2v7.1h-1.2v-1.1q-0.4 0.7-1 1-0.5 0.3-1.3 0.3-1.2 0-1.9-0.8-0.6-0.7-0.6-2.2zm3-4.5zm5.1-1.9h1.2v2.1h2.4v0.9h-2.4v3.9q0 0.8 0.2 1.1 0.3 0.2 1 0.2h1.2v1h-1.2q-1.4 0-1.9-0.5-0.5-0.5-0.5-1.8v-3.9h-0.9v-0.9h0.9zm11 4.8v4.4h-1.2v-4.3q0-1-0.4-1.5-0.4-0.5-1.2-0.5-0.9 0-1.5 0.6-0.5 0.6-0.5 1.6v4.1h-1.2v-10h1.2v3.9q0.4-0.6 1-1 0.5-0.3 1.3-0.3 1.2 0 1.8 0.8 0.7 0.8 0.7 2.2zm9.1 0.5v0.6h-5.4q0.1 1.2 0.8 1.8 0.6 0.6 1.8 0.6 0.7 0 1.3-0.1 0.6-0.2 1.3-0.5v1.1q-0.7 0.3-1.3 0.4-0.7 0.1-1.4 0.1-1.7 0-2.7-1-1-1-1-2.7 0-1.7 1-2.7 0.9-1.1 2.5-1.1 1.5 0 2.3 1 0.8 0.9 0.8 2.5zm-5.3-0.4h4.2q0-0.9-0.6-1.5-0.5-0.6-1.4-0.6-1 0-1.5 0.6-0.6 0.5-0.7 1.5zm13.2-0.1v4.4h-1.2v-4.3q0-1-0.4-1.5-0.4-0.5-1.2-0.5-0.9 0-1.5 0.6-0.5 0.6-0.5 1.6v4.1h-1.2v-7.2h1.2v1.1q0.4-0.6 1-1 0.5-0.3 1.3-0.3 1.2 0 1.8 0.8 0.7 0.8 0.7 2.2zm2-4.8h1.2v2h2.4v0.9h-2.4v3.9q0 0.9 0.2 1.1 0.3 0.3 1 0.3h1.2v1h-1.2q-1.4 0-1.9-0.6-0.5-0.5-0.5-1.8v-3.9h-0.9v-0.9h0.9zm5 9.2v-7.2h1.2v7.2zm0-8.5v-1.5h1.2v1.5zm9.1 1.6v1.1q-0.5-0.3-1-0.4-0.5-0.1-1-0.1-1.1 0-1.8 0.7-0.6 0.7-0.6 2 0 1.3 0.6 2.1 0.7 0.7 1.8 0.7 0.5 0 1-0.2 0.5-0.1 1-0.4v1.1q-0.5 0.2-1 0.4-0.5 0.1-1.1 0.1-1.6 0-2.6-1-0.9-1.1-0.9-2.8 0-1.7 0.9-2.7 1-1 2.7-1 0.5 0 1 0.1 0.5 0.1 1 0.3zm6.3 3.3h-1.2q-1.4 0-1.9 0.3-0.6 0.3-0.6 1.1 0 0.7 0.4 1 0.4 0.4 1.1 0.4 1 0 1.6-0.7 0.6-0.7 0.6-1.8zm1.2-0.5v4h-1.2v-1q-0.4 0.6-1 0.9-0.6 0.3-1.5 0.3-1.1 0-1.7-0.6-0.7-0.6-0.7-1.6 0-1.2 0.8-1.9 0.8-0.6 2.4-0.6h1.7v-0.1q0-0.8-0.5-1.2-0.6-0.5-1.5-0.5-0.7 0-1.2 0.2-0.6 0.1-1.1 0.4v-1.1q0.6-0.2 1.2-0.4 0.6-0.1 1.2-0.1 1.5 0 2.3 0.8 0.8 0.8 0.8 2.5zm2.4-5.1h1.1v2h2.5v0.9h-2.5v3.9q0 0.9 0.3 1.1 0.2 0.3 0.9 0.3h1.3v0.9h-1.3q-1.3 0-1.8-0.5-0.5-0.5-0.5-1.8v-3.9h-0.9v-0.9h0.9zm5 9.2v-7.2h1.1v7.2zm0-8.5v-1.5h1.2v1.5zm6.8 2.1q-0.9 0-1.5 0.8-0.5 0.7-0.5 2 0 1.3 0.5 2 0.5 0.8 1.5 0.8 0.9 0 1.5-0.8 0.5-0.7 0.5-2 0-1.3-0.5-2-0.6-0.8-1.5-0.8zm0-0.9q1.5 0 2.4 0.9 0.9 1 0.9 2.8 0 1.8-0.9 2.8-0.9 1-2.4 1-1.5 0-2.4-1-0.9-1-0.9-2.8 0-1.8 0.9-2.8 0.9-0.9 2.4-0.9zm11.2 3v4.3h-1.2v-4.3q0-1-0.4-1.5-0.4-0.5-1.2-0.5-0.9 0-1.5 0.6-0.5 0.6-0.5 1.6v4.1h-1.2v-7.2h1.2v1.1q0.4-0.6 1-0.9 0.5-0.3 1.3-0.3 1.2 0 1.8 0.7 0.7 0.8 0.7 2.3z"/><path class="m" d="m272.8 413.9l-6.9 0.3q-0.3-0.3-0.3-0.9 0-0.9 0.3-0.9 0.5 0 1.5-0.1 1-0.2 1.9-0.5 0.9-0.3 1.2-0.7 1-1 1.1-5.2 0.1-6.9 0.2-12.4 0.2-5.6 0.3-9.1 0.1-3.6 0.1-4.6 0-1.6-0.2-2.4-0.1-0.3-1.1-0.6-0.9-0.3-1.9-0.4-1.1-0.2-1.7-0.2-0.3 0-0.3-0.9 0-0.6 0.3-0.9 1.4 0.1 3.2 0.2 1.7 0.1 3.5 0.1 1.1 0 2.4 0 1.4-0.1 3.1-0.3 0.5 1.4 11.8 30 0.1 0.1 0.2 0.1 0.3 0 0.3-0.2 3-6.9 5.3-12.6 2.3-5.7 4.1-10.1l2.4-7.2q1.9 0.2 3.1 0.2 1.2 0.1 1.8 0.1 1.9 0 3.5-0.1 1.7 0 3.2-0.2 0.2 0.6 0.2 0.9 0 0.9-0.3 0.9h-0.1q-0.7 0-1.8 0.4-1 0.4-1.6 0.8-0.7 0.5-0.7 4l0.5 24.2q0.2 3.5 0.9 5.5 0.2 0.4 1 0.7 0.8 0.3 1.7 0.5 0.9 0.1 1.3 0.1 0.3 0 0.3 0.9 0 0.4-0.1 0.9-3-0.1-4.8-0.2-1.8-0.1-2.3-0.1l-7.2 0.3q-0.3-0.3-0.3-1 0-0.8 0.3-0.8 0.6 0 1.8-0.3 1.2-0.3 1.8-0.5 0.7-0.5 0.7-2.6v-3.2l-0.7-21q0-0.7-0.2-1.5-0.1-0.8-0.3-1.4-0.2-0.6-0.4-0.6-0.1 0-0.3 0.4l-12.5 29.9q-1.2 2.5-2.2 2.5-0.1 0-0.6-0.1l-13.6-34.8q-0.2 8.4-0.5 15.1-0.2 6.6-0.4 10.6-0.1 4-0.1 4.6 0 1.1 0.4 1.6 0.2 0.3 1.1 0.6 1 0.3 2 0.6 1.1 0.1 1.5 0.1 0.2 0 0.2 0.9 0 0.4-0.1 0.9-3-0.1-4.7-0.2-1.8-0.1-2.3-0.1zm44.6 0.3q-0.2-0.3-0.2-0.9 0-0.9 0.2-0.9 0.8 0 1.9-0.3 1.1-0.3 1.5-0.8 0.7-0.8 1.4-2.2 0.7-1.4 1.4-3.4l10.4-26.7q0.4-0.9 0.5-1.3 0.1-0.3 0.1-0.6 0.2-0.3 0.5-0.9 0.4-0.9 0.8-1.3 0.4-0.5 1.4-0.5l0.5 0.2 12 31.5q0.5 1.4 0.9 2.5 0.5 1 0.8 1.8 0.2 0.6 1 1.1 0.8 0.4 1.7 0.7 0.9 0.2 1.4 0.2 0.2 0 0.2 1.2 0 0.1-0.1 0.3 0 0.1 0 0.3-3-0.1-4.7-0.2-1.6-0.1-1.9-0.1l-6.9 0.3q-0.3-0.3-0.3-1 0.1-0.8 0.3-0.8 0.7 0 1.8-0.3 1.1-0.3 1.3-0.7 0-0.3 0-0.5 0.1-0.2 0.1-0.5 0-0.8-0.2-1.8-0.2-1.1-0.4-1.7l-2.7-7.4q-0.2-0.2-0.3-0.2-2.4-0.2-4.6-0.2-1.5 0-3.5 0.1-1.8 0.1-4.1 0.2l-0.3 0.2-2.5 6.6q-0.6 1.5-0.9 2.5-0.2 1-0.2 1.6 0 0.8 0.5 1.2 0.6 0.4 1.8 0.7 1.1 0.2 1.7 0.2 0.2 0 0.2 0.8 0 0.7-0.1 1l-6.2-0.3q-1.6-0.1-3.2 0-1.6 0.2-3 0.3zm17.7-17.9q2.7 0 5.5-0.2l0.1-0.3-4.8-13.2-5.1 13.3q0 0.2 0.1 0.2 1.5 0.1 2.5 0.2 1.1 0 1.7 0zm37 17.6l-7.1 0.3q-0.3-0.3-0.3-0.9 0-0.9 0.3-0.9 0.5 0 1.4-0.1 0.9-0.2 1.7-0.5 0.8-0.2 0.9-0.5 0.2-0.9 0.3-2.2 0.1-1.3 0.1-3.2v-21.6q0-5.2-0.5-6.2-0.5-0.8-6.5-0.8-2.3 0-3.5 0.4-1.3 0.3-1.9 1.5-0.7 1.1-1.3 3.4-0.1 0.3-0.6 0.3-1 0-1.4-0.4l1.1-8.6q1.3 0.3 2.3 0.5 1.1 0.2 1.8 0.2 4.3 0 7.6 0.1 3.3 0.1 5.5 0.1 4.6 0 7.9-0.1 3.4-0.1 5.3-0.1 0.7 0 1.8-0.2 1-0.2 2.3-0.5l1.1 8.6q-0.4 0.4-1.4 0.4-0.5 0-0.6-0.3-0.5-2.3-1.3-3.4-0.6-1.2-1.9-1.5-1.2-0.4-3.5-0.4-6.3 0-6.6 0.8-0.5 1.9-0.5 6v21.6q0 3.5 0.5 5.6 0.1 0.2 0.9 0.5 0.8 0.3 1.7 0.5 0.9 0.1 1.2 0.1 0.3 0 0.3 0.9 0 0.4-0.1 0.9-3-0.1-4.8-0.2-1.7-0.1-2.2-0.1zm24.7 0.3q-0.3-0.3-0.3-1 0-0.8 0.3-0.8 0.5 0 1.5-0.1 0.9-0.2 1.8-0.5 0.8-0.3 0.9-0.5 0.3-1.5 0.3-3.5v-21.5q0-1.8-0.1-2.8-0.1-1.1-0.7-1.1-0.4 0-1.6 0.6-1.2 0.7-2.2 1.4-0.4-0.2-0.8-0.7-0.3-0.5-0.3-0.8 0-0.3 0.1-0.4 10.1-6.9 10.3-6.9h0.2q0.4 0 0.7 1.2-0.6 1.8-0.6 5.6v23.5q0 1.8 0.1 3.1 0.1 1.3 0.4 2.3 0.1 0.2 0.9 0.5 0.8 0.3 1.7 0.5 1 0.1 1.4 0.1 0.2 0 0.2 1.1 0 0.6-0.1 0.7-2.9-0.1-4.7-0.2-1.8-0.1-2.5-0.1-0.5 0-2.2 0.1-1.7 0.1-4.7 0.2zm29.2 0.1q-5.3 0-8-1.8-0.6-0.4-0.6-1.7 0-2.8 2.2-2.8 0.9 0 1.6 0.9 0.7 0.8 1.9 1.8 1.8 1.2 4.8 1.2 2.5 0 4.5-2.1 2-2.1 2-6.6 0-3.7-2.1-6.1-2.1-2.4-6.6-2.4-3 0-5.2 0.7-0.2-0.2-0.5-0.3-0.3-0.3-0.6-0.6l2.9-17.7q5.9-0.2 9.4-0.4 3.5-0.2 4.6-0.5 0.2 0.3 0.2 0.6 0.1 0.3 0.1 1 0 1.2-0.3 3-1.6 0.5-6.8 0.6l-5.2 0.3q-0.3 0.1-0.4 0.5-0.3 1.6-0.8 4-0.4 2.3-0.9 5.5 1.9-0.8 5.6-0.8 3.2 0 5.9 1.6 2.6 1.5 4.3 4 1.6 2.5 1.6 5.5 0 3.6-1.8 6.5-1.8 2.9-4.8 4.5-3 1.6-7 1.6zm40.2-0.3h-19.6q-0.3 0-0.5-0.7-0.2-0.7-0.2-1.1 4.4-4.4 8-9.1 3.6-4.6 5.7-8.9 2.2-4.4 2.2-7.6 0-3.3-1.7-5-1.6-1.8-4.2-1.8-5 0-7.9 5-0.4 0-0.8-0.4-0.4-0.4-0.4-0.6 0.2-0.7 1-2 0.9-1.4 2.4-2.8 1.5-1.4 3.5-2.3 2-1.1 4.6-1.1 2.7 0 4.6 1.4 1.9 1.4 2.9 3.7 1.1 2.2 1.1 4.7 0 2.8-1.1 5.7-1.2 2.8-3 5.5-1.8 2.6-3.9 5.1-2.1 2.4-4.1 4.4-1.9 1.9-3.3 3.2-0.2 0.3 0.1 0.4h11.5q1.7 0 2.4-1 0.8-0.9 1.6-3.6 0.3-0.7 0.8-0.7 0.9 0 1.1 0.3-1.4 7-1.6 8.3-0.1 1-1.2 1zm21.2 0.2q-3.9 0-6.9-2.6-2.9-2.6-4.5-6.9-1.6-4.4-1.6-9.8 0-5.4 1.6-9.7 1.6-4.4 4.5-6.9 3-2.6 6.9-2.6 4.1 0 6.9 2.6 3 2.5 4.5 6.8 1.6 4.3 1.6 9.8 0 5.4-1.6 9.8-1.6 4.3-4.5 6.9-2.9 2.6-6.9 2.6zm-0.3-2.3q2.6 0 4.4-2.3 1.8-2.2 2.7-6.2 1-3.9 1-8.8 0-4.8-1-8.5-0.9-3.8-2.6-5.9-1.7-2.2-3.9-2.2-2.4 0-4.2 2.2-1.8 2.2-2.8 6-1.1 3.8-1.1 8.7 0 4.8 1 8.6 1 3.9 2.6 6.1 1.8 2.3 3.9 2.3z"/></svg>