<svg version="1.2" xmlns="http://www.w3.org/2000/svg" viewBox="0 0 800 450" width="800" height="450"><defs><linearGradient id="P" gradientUnits="userSpaceOnUse"/><linearGradient id="g1" x2="1" href="#P" gradientTransform="matrix(800,450,-800,450,0,0)"><stop stop-color="#0f172a"/><stop offset="1" stop-color="#1a2332"/></linearGradient><linearGradient id="g2" x2="1" href="#P" gradientTransform="matrix(317,198.125,-317,198.125,240,100.937)"><stop stop-color="#00d4ff"/><stop offset="1" stop-color="#09c"/></linearGradient></defs><style>.a{fill:url(#g1)}.b{opacity:.1;fill:#00d4ff}.c{opacity:.08;fill:#00d4ff}.d{fill:url(#g2)}.e{opacity:.1;fill:#fff}.f{opacity:.9;fill:#ffd700}.g{fill:#f0c000}.h{fill:#1a472a}.i{fill:#fff}.j{opacity:.95;fill:#fff}.k{fill:none;stroke:#00d4ff;stroke-width:3}.l{fill:none;stroke:#00d4ff;stroke-linecap:round;stroke-linejoin:round;stroke-width:6}.m{fill:#00d4ff}</style><path class="a" d="m0 0h800v450h-800z"/><path class="b" d="m100 120c-22.1 0-40-17.9-40-40 0-22.1 17.9-40 40-40 22.1 0 40 17.9 40 40 0 22.1-17.9 40-40 40z"/><path class="c" d="m700 410c-33.2 0-60-26.8-60-60 0-33.2 26.8-60 60-60 33.2 0 60 26.8 60 60 0 33.2-26.8 60-60 60z"/><path class="d" d="m255.9 100.9h285.3c8.7 0 15.8 7.1 15.8 15.9v166.4c0 8.8-7.1 15.9-15.8 15.9h-285.4c-8.7 0-15.8-7.1-15.8-15.9v-166.4c0-8.8 7.1-15.9 15.8-15.9z"/><path class="e" d="m256 100h288c8.8 0 16 7.2 16 16v48c0 8.8-7.2 16-16 16h-288c-8.8 0-16-7.2-16-16v-48c0-8.8 7.2-16 16-16z"/><path class="f" d="m264 220h42c2.2 0 4 1.8 4 4v42c0 2.2-1.8 4-4 4h-42c-2.2 0-4-1.8-4-4v-42c0-2.2 1.8-4 4-4z"/><path class="g" d="m267 225h36c1.1 0 2 0.9 2 2v36c0 1.1-0.9 2-2 2h-36c-1.1 0-2-0.9-2-2v-36c0-1.1 0.9-2 2-2z"/><path class="h" d="m275 238c-1.7 0-3-1.3-3-3 0-1.7 1.3-3 3-3 1.7 0 3 1.3 3 3 0 1.7-1.3 3-3 3z"/><path class="h" d="m285 238c-1.7 0-3-1.3-3-3 0-1.7 1.3-3 3-3 1.7 0 3 1.3 3 3 0 1.7-1.3 3-3 3z"/><path class="h" d="m295 238c-1.7 0-3-1.3-3-3 0-1.7 1.3-3 3-3 1.7 0 3 1.3 3 3 0 1.7-1.3 3-3 3z"/><path class="h" d="m275 253c-1.7 0-3-1.3-3-3 0-1.7 1.3-3 3-3 1.7 0 3 1.3 3 3 0 1.7-1.3 3-3 3z"/><path class="h" d="m285 253c-1.7 0-3-1.3-3-3 0-1.7 1.3-3 3-3 1.7 0 3 1.3 3 3 0 1.7-1.3 3-3 3z"/><path class="h" d="m295 253c-1.7 0-3-1.3-3-3 0-1.7 1.3-3 3-3 1.7 0 3 1.3 3 3 0 1.7-1.3 3-3 3z"/><path class="i" d="m263.6 278.1q0-1.5 1-2.5 1-1 2.5-1 1.5 0 2.5 1 1 1 1 2.5 0 1.4-1 2.4-1.1 1.1-2.5 1.1-1.5 0-2.5-1.1-1-1-1-2.4zm14 0q0-1.5 1-2.5 1-1 2.5-1 1.5 0 2.5 1 1 1 1 2.5 0 1.4-1 2.4-1.1 1.1-2.5 1.1-1.5 0-2.5-1.1-1-1-1-2.4zm14 0q0-1.5 1-2.5 1-1 2.5-1 1.5 0 2.5 1 1 1 1 2.5 0 1.4-1 2.4-1.1 1.1-2.5 1.1-1.5 0-2.5-1.1-1-1-1-2.4zm14 0q0-1.5 1-2.5 1-1 2.5-1 1.5 0 2.5 1 1 1 1 2.5 0 1.4-1 2.4-1.1 1.1-2.5 1.1-1.5 0-2.5-1.1-1-1-1-2.4zm22 0q0-1.5 1-2.5 1-1 2.5-1 1.5 0 2.5 1 1 1 1 2.5 0 1.4-1 2.4-1.1 1.1-2.5 1.1-1.5 0-2.5-1.1-1-1-1-2.4zm14 0q0-1.5 1-2.5 1-1 2.5-1 1.5 0 2.5 1 1 1 1 2.5 0 1.4-1 2.4-1.1 1.1-2.5 1.1-1.5 0-2.5-1.1-1-1-1-2.4zm15 0q0-1.5 1-2.5 1-1 2.5-1 1.5 0 2.5 1 1 1 1 2.5 0 1.4-1 2.4-1.1 1.1-2.5 1.1-1.5 0-2.5-1.1-1-1-1-2.4zm14 0q0-1.5 1-2.5 1-1 2.5-1 1.5 0 2.5 1 1 1 1 2.5 0 1.4-1 2.4-1.1 1.1-2.5 1.1-1.5 0-2.5-1.1-1-1-1-2.4zm22 0q0-1.5 1-2.5 1-1 2.5-1 1.5 0 2.5 1 1 1 1 2.5 0 1.4-1 2.4-1.1 1.1-2.5 1.1-1.5 0-2.5-1.1-1-1-1-2.4zm14 0q0-1.5 1-2.5 1-1 2.5-1 1.5 0 2.5 1 1 1 1 2.5 0 1.4-1 2.4-1.1 1.1-2.5 1.1-1.5 0-2.5-1.1-1-1-1-2.4zm14 0q0-1.5 1-2.5 1-1 2.5-1 1.5 0 2.5 1 1 1 1 2.5 0 1.4-1 2.4-1.1 1.1-2.5 1.1-1.5 0-2.5-1.1-1-1-1-2.4zm14 0q0-1.5 1-2.5 1-1 2.5-1 1.5 0 2.5 1 1 1 1 2.5 0 1.4-1 2.4-1.1 1.1-2.5 1.1-1.5 0-2.5-1.1-1-1-1-2.4zm28.1-0.5q1.7 0.3 2.7 1.5 0.9 1.1 0.9 2.8 0 2.6-1.7 4-1.8 1.4-5.1 1.4-1.1 0-2.3-0.2-1.1-0.2-2.4-0.6v-2.3q1 0.6 2.2 0.9 1.2 0.2 2.4 0.2 2.3 0 3.4-0.8 1.2-0.9 1.2-2.6 0-1.5-1.1-2.4-1.1-0.9-3-0.9h-2v-1.9h2.1q1.7 0 2.7-0.7 0.9-0.7 0.9-2 0-1.4-1-2.1-0.9-0.7-2.7-0.7-1 0-2.1 0.2-1.1 0.2-2.4 0.6v-2.1q1.3-0.3 2.5-0.5 1.2-0.2 2.2-0.2 2.7 0 4.3 1.2 1.5 1.2 1.5 3.3 0 1.5-0.8 2.5-0.8 1-2.4 1.4zm12.9 1.1q-1.7 0-2.6 0.9-1 0.9-1 2.5 0 1.6 1 2.5 0.9 0.9 2.6 0.9 1.7 0 2.7-0.9 1-1 1-2.5 0-1.6-1-2.5-1-0.9-2.7-0.9zm-2.3-1q-1.6-0.4-2.4-1.4-0.9-1.1-0.9-2.6 0-2.1 1.5-3.3 1.5-1.2 4.1-1.2 2.6 0 4.1 1.2 1.5 1.2 1.5 3.3 0 1.5-0.8 2.6-0.9 1-2.4 1.4 1.7 0.4 2.7 1.5 0.9 1.2 0.9 2.9 0 2.5-1.5 3.9-1.6 1.3-4.5 1.3-2.9 0-4.4-1.3-1.6-1.4-1.6-3.9 0-1.7 1-2.9 1-1.1 2.7-1.5zm-0.9-3.8q0 1.4 0.8 2.2 0.9 0.7 2.4 0.7 1.6 0 2.4-0.7 0.9-0.8 0.9-2.2 0-1.3-0.9-2.1-0.8-0.7-2.4-0.7-1.5 0-2.4 0.7-0.8 0.8-0.8 2.1zm19.7 7v-9.3l-6 9.3zm-7.9-0.3l7.3-11.1h2.9v11.4h2.5v2h-2.5v4.1h-2.3v-4.1h-7.9zm16.8-9.1v-2h11.2v1l-6.3 16.5h-2.5l6-15.5z"/><path class="j" d="m420 120h80v50q0 50-40 70-40-20-40-70z"/><path class="k" d="m420 120h80v50q0 50-40 70-40-20-40-70z"/><path class="l" d="m440 175l15 15 25-30"/><path class="i" d="m306.5 322.9v2.4q-1.2-1.1-2.6-1.6-1.3-0.6-2.9-0.6-3 0-4.6 1.9-1.6 1.8-1.6 5.3 0 3.4 1.6 5.3 1.6 1.8 4.6 1.8 1.6 0 2.9-0.6 1.4-0.5 2.6-1.6v2.5q-1.3 0.8-2.7 1.2-1.4 0.4-2.9 0.4-4 0-6.3-2.4-2.3-2.4-2.3-6.6 0-4.2 2.3-6.7 2.3-2.4 6.3-2.4 1.6 0 2.9 0.4 1.4 0.4 2.7 1.3zm11.9 9.5h-2.2q-2.6 0-3.6 0.6-1 0.6-1 2 0 1.2 0.7 1.9 0.8 0.6 2.1 0.6 1.8 0 2.9-1.2 1.1-1.3 1.1-3.4zm2.1-0.9v7.5h-2.1v-2q-0.8 1.2-1.9 1.8-1.1 0.5-2.7 0.5-2 0-3.2-1.1-1.2-1.1-1.2-3 0-2.3 1.5-3.4 1.5-1.1 4.4-1.1h3.1v-0.2q0-1.5-1-2.3-1-0.8-2.8-0.8-1.1 0-2.1 0.2-1.1 0.3-2.1 0.8v-1.9q1.2-0.5 2.3-0.7 1.1-0.3 2.2-0.3 2.8 0 4.2 1.5 1.4 1.5 1.4 4.5zm11.4-5.8v2.2q-0.4-0.2-0.8-0.3-0.5-0.1-1-0.1-1.8 0-2.8 1.2-1 1.1-1 3.4v6.9h-2.1v-13.1h2.1v2q0.7-1.2 1.8-1.8 1.1-0.6 2.7-0.6 0.2 0 0.5 0.1 0.2 0 0.6 0.1zm11 2.1v-7.1h2.2v18.3h-2.2v-2q-0.7 1.2-1.7 1.8-1.1 0.5-2.5 0.5-2.4 0-3.9-1.9-1.5-1.9-1.5-5 0-3.1 1.5-5 1.5-1.9 3.9-1.9 1.4 0 2.5 0.6 1 0.6 1.7 1.7zm-7.3 4.6q0 2.4 0.9 3.8 1 1.3 2.7 1.3 1.7 0 2.7-1.3 1-1.4 1-3.8 0-2.3-1-3.7-1-1.4-2.7-1.4-1.7 0-2.7 1.4-0.9 1.4-0.9 3.7zm29 6.6h-2.7l-6.7-17.5h2.5l5.5 14.7 5.6-14.7h2.4zm14.8-6.6h-2.1q-2.6 0-3.6 0.6-1 0.6-1 2 0 1.2 0.7 1.9 0.8 0.6 2.1 0.6 1.8 0 2.8-1.2 1.1-1.3 1.1-3.4zm2.2-0.9v7.5h-2.2v-2q-0.7 1.2-1.8 1.7-1.1 0.6-2.7 0.6-2 0-3.2-1.1-1.2-1.2-1.2-3.1 0-2.2 1.5-3.3 1.5-1.1 4.4-1.1h3v-0.2q0-1.5-0.9-2.3-1-0.8-2.8-0.8-1.1 0-2.2 0.2-1 0.3-2 0.8v-2q1.2-0.4 2.3-0.6 1.1-0.3 2.1-0.3 2.9 0 4.3 1.5 1.4 1.5 1.4 4.5zm4.7 7.5v-18.3h2.2v18.3zm6 0v-13.2h2.1v13.2zm0-15.5v-2.8h2.2v2.8zm15.6 4.3v-7.1h2.2v18.3h-2.2v-2q-0.6 1.2-1.7 1.7-1 0.6-2.5 0.6-2.4 0-3.9-1.9-1.4-1.9-1.4-5 0-3.1 1.4-5 1.5-1.9 3.9-1.9 1.5 0 2.5 0.6 1.1 0.6 1.7 1.7zm-7.3 4.6q0 2.4 1 3.8 0.9 1.3 2.7 1.3 1.7 0 2.7-1.3 0.9-1.4 0.9-3.8 0-2.4-0.9-3.7-1-1.4-2.7-1.4-1.8 0-2.7 1.4-1 1.3-1 3.7zm21.8 0h-2.1q-2.7 0-3.7 0.6-1 0.6-1 2 0 1.2 0.8 1.8 0.7 0.7 2 0.7 1.8 0 2.9-1.3 1.1-1.2 1.1-3.4zm2.2-0.8v7.4h-2.2v-1.9q-0.7 1.1-1.8 1.7-1.1 0.6-2.7 0.6-2 0-3.2-1.1-1.2-1.2-1.2-3.1 0-2.2 1.5-3.3 1.4-1.1 4.4-1.1h3v-0.3q0-1.4-1-2.2-0.9-0.9-2.7-0.9-1.1 0-2.2 0.3-1.1 0.3-2.1 0.8v-2q1.2-0.4 2.3-0.7 1.1-0.2 2.2-0.2 2.9 0 4.3 1.5 1.4 1.5 1.4 4.5zm4.7-9.4h2.1v3.7h4.5v1.7h-4.5v7.1q0 1.6 0.5 2.1 0.4 0.4 1.8 0.4h2.2v1.8h-2.2q-2.5 0-3.5-0.9-0.9-0.9-0.9-3.4v-7.1h-1.6v-1.7h1.6zm14.1 5.3q-1.8 0-2.8 1.3-1 1.4-1 3.7 0 2.4 1 3.7 1 1.4 2.8 1.4 1.7 0 2.7-1.4 1-1.3 1-3.7 0-2.3-1-3.7-1-1.3-2.7-1.3zm0-1.9q2.8 0 4.4 1.9 1.6 1.8 1.6 5 0 3.2-1.6 5.1-1.6 1.8-4.4 1.8-2.8 0-4.4-1.8-1.6-1.9-1.6-5.1 0-3.2 1.6-5 1.6-1.9 4.4-1.9zm17.5 0.1v2.3q-0.4-0.2-0.8-0.3-0.4-0.1-0.9-0.1-1.9 0-2.8 1.1-1 1.2-1 3.5v6.9h-2.2v-13.2h2.2v2.1q0.7-1.2 1.8-1.8 1-0.6 2.6-0.6 0.2 0 0.5 0.1 0.3 0 0.6 0zm16.7 5h-3.8v6.4h3.8q1.9 0 2.8-0.8 0.9-0.8 0.9-2.4 0-1.6-0.9-2.4-0.9-0.8-2.8-0.8zm-0.3-7.2h-3.5v5.3h3.5q1.7 0 2.5-0.6 0.9-0.7 0.9-2 0-1.4-0.9-2-0.8-0.7-2.5-0.7zm-5.9 15.6v-17.5h6q2.7 0 4.2 1.1 1.5 1.1 1.5 3.2 0 1.6-0.8 2.6-0.7 0.9-2.2 1.1 1.8 0.4 2.7 1.6 1 1.2 1 3 0 2.3-1.6 3.6-1.6 1.3-4.5 1.3zm21-11.6q-1.8 0-2.8 1.3-1 1.4-1 3.7 0 2.4 1 3.7 1 1.4 2.8 1.4 1.7 0 2.7-1.4 1-1.3 1-3.7 0-2.3-1-3.7-1-1.3-2.7-1.3zm0-1.9q2.8 0 4.4 1.9 1.6 1.8 1.6 5 0 3.2-1.6 5.1-1.6 1.8-4.4 1.8-2.9 0-4.5-1.8-1.6-1.9-1.6-5.1 0-3.2 1.6-5 1.6-1.9 4.5-1.9zm9.8-3.4h2.2v3.7h4.5v1.7h-4.5v7.1q0 1.7 0.4 2.1 0.5 0.5 1.8 0.5h2.3v1.8h-2.3q-2.5 0-3.4-1-1-0.9-1-3.4v-7.1h-1.5v-1.7h1.5z"/><path class="i" d="m345.4 397v-17.5h3.5l4.4 11.9 4.5-11.9h3.6v17.5h-2.3v-15.4l-4.6 12h-2.3l-4.5-12v15.4zm29-6.6h-2.2q-2.6 0-3.6 0.6-1 0.6-1 2 0 1.2 0.7 1.9 0.8 0.6 2.1 0.6 1.8 0 2.9-1.2 1.1-1.3 1.1-3.4zm2.1-0.9v7.5h-2.1v-2q-0.8 1.2-1.9 1.8-1.1 0.5-2.7 0.5-2 0-3.2-1.1-1.2-1.1-1.2-3 0-2.3 1.5-3.4 1.5-1.1 4.4-1.1h3.1v-0.2q0-1.5-1-2.3-1-0.8-2.8-0.8-1.1 0-2.1 0.2-1.1 0.3-2.1 0.8v-1.9q1.2-0.5 2.3-0.7 1.1-0.3 2.2-0.3 2.8 0 4.2 1.5 1.4 1.5 1.4 4.5zm4.7-9.4h2.2v3.8h4.4v1.6h-4.4v7.2q0 1.6 0.4 2 0.5 0.5 1.8 0.5h2.2v1.8h-2.2q-2.5 0-3.4-0.9-1-1-1-3.4v-7.2h-1.6v-1.6h1.6zm17.8 16.8v-2h3.8v-13.3l-4.2 0.8v-2.1l4.2-0.9h2.4v15.5h3.9v2zm14.6-8.7v-8.8h9.3v2h-7.2v4.3q0.5-0.2 1.1-0.3 0.5-0.1 1-0.1 2.9 0 4.6 1.6 1.7 1.7 1.7 4.4 0 2.8-1.7 4.4-1.8 1.5-5 1.5-1.1 0-2.2-0.1-1.2-0.2-2.4-0.6v-2.4q1.1 0.6 2.2 0.9 1.1 0.3 2.4 0.3 2 0 3.2-1.1 1.2-1.1 1.2-2.9 0-1.8-1.2-2.9-1.2-1.1-3.2-1.1-1 0-1.9 0.2-1 0.3-1.9 0.7zm17 6.7h8.2v2h-11.1v-2q1.4-1.4 3.7-3.7 2.3-2.4 2.9-3.1 1.2-1.2 1.6-2.1 0.5-0.9 0.5-1.8 0-1.4-1-2.2-1-0.9-2.6-0.9-1.1 0-2.3 0.4-1.2 0.4-2.6 1.1v-2.3q1.4-0.6 2.6-0.9 1.3-0.3 2.3-0.3 2.7 0 4.3 1.4 1.6 1.3 1.6 3.6 0 1.1-0.4 2-0.4 1-1.4 2.3-0.3 0.4-1.9 2-1.6 1.6-4.4 4.5zm18-13.9q-1.8 0-2.7 1.8-1 1.8-1 5.4 0 3.6 1 5.4 0.9 1.8 2.7 1.8 1.8 0 2.8-1.8 0.9-1.8 0.9-5.4 0-3.6-0.9-5.4-1-1.8-2.8-1.8zm0-1.9q2.9 0 4.5 2.3 1.6 2.3 1.6 6.8 0 4.4-1.6 6.7-1.6 2.3-4.5 2.3-2.9 0-4.5-2.3-1.5-2.3-1.5-6.7 0-4.5 1.5-6.8 1.6-2.3 4.5-2.3z"/><path class="m" d="m278.4 368v-10.2h1.4v9h4.9v1.2zm7.8-3v-4.7h1.3v4.6q0 1.1 0.4 1.7 0.4 0.5 1.3 0.5 1 0 1.6-0.6 0.6-0.7 0.6-1.8v-4.4h1.3v7.7h-1.3v-1.2q-0.5 0.7-1.1 1.1-0.6 0.3-1.4 0.3-1.3 0-2-0.8-0.7-0.8-0.7-2.4zm3.2-4.8zm11.3 3.2v4.6h-1.2v-4.6q0-1.1-0.4-1.6-0.5-0.5-1.3-0.5-1 0-1.6 0.6-0.6 0.7-0.6 1.8v4.3h-1.3v-10.6h1.3v4.1q0.4-0.7 1-1 0.7-0.3 1.5-0.3 1.3 0 2 0.8 0.6 0.8 0.6 2.4zm9 0v4.6h-1.2v-4.6q0-1.1-0.4-1.6-0.5-0.5-1.3-0.5-1 0-1.6 0.6-0.6 0.7-0.6 1.8v4.3h-1.3v-7.7h1.3v1.2q0.4-0.7 1-1 0.7-0.3 1.5-0.3 1.3 0 2 0.8 0.6 0.8 0.6 2.4zm13 0.8l-1.9-5-1.8 5zm-6.6 3.8l3.9-10.2h1.6l3.9 10.2h-1.5l-0.9-2.6h-4.6l-0.9 2.6zm10.2 0v-10.6h1.2v10.6zm9.1-3.9q0-1.4-0.6-2.1-0.6-0.8-1.6-0.8-1 0-1.6 0.8-0.5 0.7-0.5 2.1 0 1.3 0.5 2.1 0.6 0.7 1.6 0.7 1 0 1.6-0.7 0.6-0.8 0.6-2.1zm1.2-3.8v6.7q0 2-0.8 3-0.9 0.9-2.7 0.9-0.7 0-1.3-0.1-0.5-0.1-1.1-0.3v-1.2q0.6 0.3 1.1 0.4 0.5 0.2 1.1 0.2 1.2 0 1.9-0.7 0.6-0.6 0.6-1.9v-0.6q-0.4 0.6-1 1-0.6 0.3-1.5 0.3-1.4 0-2.3-1.1-0.8-1-0.8-2.8 0-1.8 0.8-2.9 0.9-1 2.3-1 0.9 0 1.5 0.3 0.6 0.3 1 1v-1.2zm5.6 0.9q-1 0-1.6 0.8-0.5 0.8-0.5 2.2 0 1.4 0.5 2.1 0.6 0.8 1.6 0.8 1 0 1.6-0.8 0.6-0.8 0.6-2.1 0-1.4-0.6-2.2-0.6-0.8-1.6-0.8zm0-1q1.7 0 2.6 1 1 1.1 1 3 0 1.9-1 2.9-0.9 1.1-2.6 1.1-1.6 0-2.5-1.1-1-1-1-2.9 0-1.9 1-3 0.9-1 2.5-1zm10.5 0v1.3q-0.2-0.1-0.5-0.2-0.2 0-0.5 0-1.1 0-1.6 0.7-0.6 0.7-0.6 2v4h-1.3v-7.7h1.3v1.2q0.4-0.7 1-1 0.7-0.3 1.6-0.3 0.1 0 0.3 0 0.1 0 0.3 0zm0.6 7.8v-7.7h1.2v7.7zm0-9v-1.6h1.3v1.6zm4-0.8h1.2v2.1h2.6v1h-2.6v4.2q0 0.9 0.3 1.2 0.2 0.2 1 0.2h1.3v1.1h-1.3q-1.4 0-2-0.5-0.5-0.6-0.5-2v-4.2h-1v-1h1zm12.4 5.3v4.6h-1.3v-4.6q0-1.1-0.4-1.6-0.5-0.6-1.3-0.6-1 0-1.6 0.7-0.6 0.6-0.6 1.7v4.4h-1.3v-10.7h1.3v4.2q0.5-0.7 1.1-1 0.6-0.4 1.4-0.4 1.3 0 2 0.9 0.7 0.8 0.7 2.4zm8.5-1.6q0.5-0.9 1.2-1.3 0.6-0.4 1.5-0.4 1.2 0 1.9 0.9 0.6 0.8 0.6 2.4v4.6h-1.2v-4.6q0-1.1-0.4-1.6-0.4-0.6-1.2-0.6-1 0-1.6 0.7-0.5 0.6-0.5 1.7v4.4h-1.3v-4.6q0-1.1-0.4-1.6-0.4-0.6-1.2-0.6-1 0-1.5 0.7-0.6 0.6-0.6 1.7v4.4h-1.3v-7.7h1.3v1.2q0.4-0.7 1-1 0.6-0.4 1.5-0.4 0.8 0 1.4 0.5 0.6 0.4 0.8 1.2zm12.9 1q0-0.9 0.6-1.5 0.6-0.6 1.4-0.6 0.9 0 1.4 0.6 0.6 0.6 0.6 1.5 0 0.8-0.6 1.4-0.5 0.6-1.4 0.6-0.9 0-1.4-0.6-0.6-0.6-0.6-1.4zm17.4-4.7v1.3q-0.8-0.3-1.5-0.5-0.7-0.2-1.4-0.2-1.1 0-1.7 0.4-0.6 0.5-0.6 1.3 0 0.7 0.4 1 0.4 0.4 1.5 0.6l0.9 0.1q1.5 0.3 2.2 1.1 0.8 0.7 0.8 2 0 1.4-1 2.2-1 0.8-2.9 0.8-0.8 0-1.6-0.2-0.8-0.2-1.7-0.5v-1.4q0.9 0.5 1.7 0.7 0.8 0.3 1.6 0.3 1.1 0 1.8-0.5 0.6-0.5 0.6-1.3 0-0.8-0.4-1.2-0.5-0.4-1.5-0.7l-0.9-0.1q-1.5-0.3-2.2-1-0.7-0.6-0.7-1.8 0-1.4 0.9-2.1 1-0.8 2.7-0.8 0.7 0 1.4 0.1 0.8 0.1 1.6 0.4zm9.3 5.7v0.6h-5.7q0 1.3 0.7 2 0.7 0.7 2 0.7 0.7 0 1.4-0.2 0.7-0.1 1.3-0.5v1.2q-0.6 0.3-1.3 0.4-0.8 0.2-1.5 0.2-1.8 0-2.9-1.1-1.1-1.1-1.1-2.9 0-1.9 1.1-3 1-1.1 2.7-1.1 1.5 0 2.4 1 0.9 1 0.9 2.7zm-5.7-0.3h4.5q0-1.1-0.6-1.7-0.6-0.6-1.5-0.6-1 0-1.7 0.6-0.6 0.6-0.7 1.7zm13.7-2.9v1.2q-0.5-0.3-1.1-0.5-0.5-0.1-1.1-0.1-1.2 0-1.9 0.8-0.6 0.8-0.6 2.2 0 1.4 0.6 2.1 0.7 0.8 1.9 0.8 0.6 0 1.1-0.1 0.6-0.2 1.1-0.5v1.2q-0.5 0.2-1.1 0.3-0.6 0.2-1.2 0.2-1.7 0-2.7-1.1-1.1-1.1-1.1-2.9 0-1.9 1.1-3 1-1.1 2.8-1.1 0.6 0 1.1 0.2 0.6 0.1 1.1 0.3zm2.4 4.4v-4.7h1.2v4.6q0 1.1 0.4 1.6 0.5 0.6 1.3 0.6 1 0 1.6-0.7 0.6-0.6 0.6-1.7v-4.4h1.3v7.7h-1.3v-1.2q-0.4 0.7-1.1 1-0.6 0.4-1.4 0.4-1.3 0-2-0.8-0.6-0.9-0.6-2.4zm3.1-4.9zm9.4 0.1v1.3q-0.2-0.1-0.4-0.2-0.3 0-0.6 0-1.1 0-1.6 0.7-0.6 0.6-0.6 1.9v4.1h-1.3v-7.7h1.3v1.2q0.4-0.7 1-1 0.7-0.4 1.6-0.4 0.1 0 0.3 0.1 0.1 0 0.3 0zm8.1 3.6v0.6h-5.7q0 1.3 0.7 2 0.7 0.7 2 0.7 0.7 0 1.4-0.2 0.7-0.1 1.3-0.5v1.2q-0.6 0.3-1.3 0.4-0.8 0.2-1.5 0.2-1.8 0-2.9-1.1-1.1-1.1-1.1-2.9 0-1.9 1.1-3 1-1.1 2.7-1.1 1.5 0 2.4 1 0.9 1 0.9 2.7zm-5.7-0.3h4.5q0-1.1-0.6-1.7-0.6-0.6-1.5-0.6-1 0-1.7 0.6-0.6 0.6-0.7 1.7zm16.4 4.5h-1.5l-3.9-10.2h1.4l3.3 8.6 3.2-8.6h1.4zm8.5-3.9h-1.2q-1.6 0-2.2 0.4-0.5 0.3-0.5 1.2 0 0.6 0.4 1 0.4 0.4 1.2 0.4 1 0 1.7-0.7 0.6-0.8 0.6-2zm1.3-0.5v4.3h-1.3v-1.1q-0.4 0.7-1.1 1-0.6 0.3-1.5 0.3-1.2 0-1.9-0.6-0.7-0.7-0.7-1.8 0-1.3 0.9-1.9 0.8-0.7 2.5-0.7h1.8v-0.1q0-0.9-0.6-1.3-0.5-0.5-1.6-0.5-0.6 0-1.2 0.1-0.7 0.2-1.2 0.5v-1.2q0.7-0.2 1.3-0.4 0.6-0.1 1.3-0.1 1.6 0 2.4 0.9 0.9 0.8 0.9 2.6zm3 4.3v-10.6h1.2v10.6zm4 0v-7.6h1.3v7.6zm0-9v-1.6h1.3v1.6zm9 2.6v-4.2h1.2v10.6h-1.2v-1.1q-0.4 0.7-1 1-0.6 0.3-1.5 0.3-1.4 0-2.2-1.1-0.9-1.1-0.9-2.9 0-1.8 0.9-2.9 0.8-1.1 2.2-1.1 0.9 0 1.5 0.3 0.6 0.4 1 1.1zm-4.3 2.6q0 1.4 0.6 2.2 0.5 0.8 1.5 0.8 1 0 1.6-0.8 0.6-0.8 0.6-2.2 0-1.4-0.6-2.1-0.6-0.8-1.6-0.8-1 0-1.5 0.8-0.6 0.7-0.6 2.1zm13 0h-1.3q-1.5 0-2.1 0.3-0.6 0.4-0.6 1.2 0 0.7 0.5 1.1 0.4 0.4 1.2 0.4 1 0 1.6-0.7 0.7-0.8 0.7-2zm1.2-0.5v4.3h-1.2v-1.1q-0.4 0.7-1.1 1-0.6 0.3-1.6 0.3-1.1 0-1.8-0.6-0.7-0.7-0.7-1.8 0-1.3 0.8-1.9 0.9-0.7 2.6-0.7h1.8v-0.1q0-0.9-0.6-1.4-0.6-0.4-1.6-0.4-0.6 0-1.3 0.1-0.6 0.2-1.2 0.5v-1.2q0.7-0.2 1.4-0.4 0.6-0.1 1.2-0.1 1.7 0 2.5 0.8 0.8 0.9 0.8 2.7zm2-5.5h1.3v2.2h2.6v0.9h-2.6v4.2q0 0.9 0.2 1.2 0.3 0.3 1.1 0.3h1.3v1h-1.3q-1.5 0-2-0.5-0.6-0.6-0.6-2v-4.2h-0.9v-0.9h0.9zm6.1 9.8v-7.7h1.2v7.7zm0-9v-1.6h1.3v1.6zm6.9 2.2q-1 0-1.6 0.8-0.6 0.8-0.6 2.2 0 1.4 0.6 2.1 0.6 0.8 1.6 0.8 1 0 1.6-0.8 0.6-0.8 0.6-2.1 0-1.4-0.6-2.2-0.6-0.8-1.6-0.8zm0-1q1.7 0 2.6 1 0.9 1.1 0.9 3 0 1.9-0.9 2.9-0.9 1.1-2.6 1.1-1.6 0-2.5-1.1-1-1-1-2.9 0-1.9 1-3 0.9-1 2.5-1zm11.4 3.2v4.6h-1.2v-4.6q0-1.1-0.4-1.6-0.5-0.5-1.3-0.5-1 0-1.6 0.6-0.6 0.7-0.6 1.8v4.3h-1.3v-7.7h1.3v1.2q0.4-0.7 1-1 0.7-0.3 1.5-0.3 1.3 0 2 0.8 0.6 0.8 0.6 2.4z"/></svg>