<svg xmlns="http://www.w3.org/2000/svg" viewBox="0 0 20 20" width="20" height="20" fill="#666">
  <path d="M10 0C4.48 0 0 4.58 0 10.25c0 4.53 2.87 8.37 6.84 9.73.5.09.68-.22.68-.49 0-.24-.01-.87-.01-1.71-2.78.62-3.37-1.37-3.37-1.37-.45-1.18-1.11-1.49-1.11-1.49-.91-.64.07-.63.07-.63 1.01.07 1.54 1.06 1.54 1.06.89 1.56 2.34 1.11 2.91.85.09-.66.35-1.11.63-1.36-2.22-.26-4.56-1.14-4.56-5.07 0-1.12.39-2.03 1.03-2.75-.1-.26-.45-1.29.1-2.68 0 0 .84-.28 2.75 1.05.8-.23 1.65-.34 2.5-.34.85 0 1.71.11 2.5.34 1.91-1.33 2.75-1.05 2.75-1.05.55 1.39.2 2.42.1 2.68.64.72 1.03 1.63 1.03 2.75 0 3.94-2.34 4.8-4.57 5.05.36.32.68.94.68 1.9 0 1.37-.01 2.48-.01 2.82 0 .27.18.59.69.49C17.14 18.61 20 14.78 20 10.25 20 4.58 15.52 0 10 0z"/>
</svg>
