<svg xmlns="http://www.w3.org/2000/svg" viewBox="0 0 600 340" width="600" height="340">
  <defs>
    <linearGradient id="vault-bg-md" x1="0%" y1="0%" x2="100%" y2="100%">
      <stop offset="0%" style="stop-color:#0f172a;stop-opacity:1" />
      <stop offset="100%" style="stop-color:#1a2332;stop-opacity:1" />
    </linearGradient>
    <linearGradient id="vault-lock-md" x1="0%" y1="0%" x2="100%" y2="100%">
      <stop offset="0%" style="stop-color:#fbbf24;stop-opacity:1" />
      <stop offset="100%" style="stop-color:#f59e0b;stop-opacity:1" />
    </linearGradient>
  </defs>
  
  <!-- Background -->
  <rect width="600" height="340" fill="url(#vault-bg-md)"/>
  
  <!-- Decorative circles -->
  <circle cx="80" cy="60" r="35" fill="#10b981" opacity="0.1"/>
  <circle cx="520" cy="280" r="42" fill="#10b981" opacity="0.08"/>
  
  <!-- Vault door background -->
  <rect x="150" y="65" width="300" height="225" rx="12" fill="#1e293b" filter="drop-shadow(0 8px 30px rgba(0, 0, 0, 0.5))"/>
  
  <!-- Vault door metal effect -->
  <rect x="150" y="65" width="300" height="225" rx="12" fill="none" stroke="#334155" stroke-width="2" opacity="0.5"/>
  
  <!-- Vault bolts -->
  <circle cx="165" cy="80" r="4" fill="#64748b"/>
  <circle cx="585" cy="80" r="4" fill="#64748b"/>
  <circle cx="165" cy="280" r="4" fill="#64748b"/>
  <circle cx="585" cy="280" r="4" fill="#64748b"/>
  
  <!-- Lock mechanism -->
  <g transform="translate(300, 140)">
    <!-- Lock body -->
    <rect x="-35" y="-28" width="70" height="60" rx="6" fill="url(#vault-lock-md)" filter="drop-shadow(0 6px 15px rgba(0, 0, 0, 0.3))"/>
    
    <!-- Lock shackle -->
    <path d="M -22 -28 Q -22 -58 0 -58 Q 22 -58 22 -28" stroke="url(#vault-lock-md)" stroke-width="6" fill="none" stroke-linecap="round" filter="drop-shadow(0 3px 10px rgba(0, 0, 0, 0.3))"/>
    
    <!-- Keyhole -->
    <circle cx="0" cy="8" r="6" fill="#0f172a"/>
    <circle cx="0" cy="24" r="3.5" fill="#0f172a"/>
  </g>
  
  <!-- Shield with checkmark -->
  <g transform="translate(380, 190)">
    <!-- Shield -->
    <path d="M 0 0 L 38 0 L 38 22 Q 38 45 19 56 Q 0 45 0 22 Z" fill="#10b981" opacity="0.9" filter="drop-shadow(0 4px 12px rgba(0, 0, 0, 0.2))"/>
    
    <!-- Checkmark -->
    <path d="M 9 28 L 17 36 L 29 21" stroke="#fff" stroke-width="3" fill="none" stroke-linecap="round" stroke-linejoin="round"/>
  </g>
  
  <!-- Password dots -->
  <g transform="translate(170, 110)">
    <circle cx="0" cy="0" r="3" fill="#94a3b8" opacity="0.6"/>
    <circle cx="10" cy="0" r="3" fill="#94a3b8" opacity="0.6"/>
    <circle cx="20" cy="0" r="3" fill="#94a3b8" opacity="0.6"/>
    <circle cx="30" cy="0" r="3" fill="#94a3b8" opacity="0.6"/>
  </g>
  
  <!-- Text -->
  <text x="300" y="310" fill="#fff" font-family="Arial, sans-serif" font-size="18" text-anchor="middle" font-weight="bold">SecureVault Manager</text>
  <text x="300" y="330" fill="#10b981" font-family="monospace" font-size="11" text-anchor="middle">AES-256 Encryption • Secure</text>
</svg>
